<svg width="13" height="17" viewBox="0 0 13 17" fill="none" xmlns="http://www.w3.org/2000/svg">
<path opacity="0.5" fill-rule="evenodd" clip-rule="evenodd" d="M4.17988 0.40653L9.25516 5.0668L13 8.50152L9.25516 11.9359L4.17988 16.5962C3.89608 16.8554 3.51166 17.0007 3.11156 17C2.71147 17.0007 2.32704 16.8554 2.04324 16.5962L0.442873 15.1245C0.159674 14.8643 -1.26862e-06 14.5114 -1.23645e-06 14.1434C-1.20429e-06 13.7755 0.159674 13.4225 0.442873 13.1623L5.51634 8.50204L0.442874 3.84042C0.159675 3.58019 -2.82137e-07 3.22727 -2.49969e-07 2.85931C-2.178e-07 2.49134 0.159675 2.13842 0.442874 1.87819L2.04324 0.40653C2.32644 0.146404 2.71087 -8.99504e-07 3.11156 -8.64474e-07C3.51226 -8.29445e-07 3.89669 0.146404 4.17988 0.40653Z" fill="white"/>
</svg>
