<svg width="91" height="91" viewBox="0 0 91 91" fill="none" xmlns="http://www.w3.org/2000/svg">
<path d="M23.6053 84.8405L23.1132 84.5526L22.6087 84.2708C12.6702 78.4032 5.39121 68.9136 2.29979 57.7939L2.14968 57.2427L2.00696 56.6878C-0.863814 45.5146 0.69363 33.6642 6.35395 23.6122L6.64802 23.1201L6.93101 22.6279C12.7993 12.6913 22.2832 5.4092 33.3981 2.30546L33.9468 2.15412H33.9554L34.5054 2.0077C45.6793 -0.866013 57.5317 0.695731 67.5797 6.36577L68.0719 6.65491L68.5764 6.94283C78.5116 12.8084 85.7893 22.2936 88.8828 33.4087H88.889L89.0391 33.9587V33.9685L89.1867 34.5209C92.0618 45.6966 90.5019 57.5512 84.8336 67.6026L84.5506 68.0948L84.2639 68.5906H84.2541C78.3858 78.5253 68.8992 85.8023 57.7833 88.8959L57.2346 89.0472L56.6833 89.1973V89.1924C53.031 90.1259 49.2762 90.5987 45.5064 90.6C37.8325 90.5935 30.2897 88.6099 23.6053 84.8405ZM56.3462 83.5141L57.488 87.7922C68.3104 84.7727 77.5459 77.6851 83.2624 68.0123L79.4211 65.7976C74.2924 74.4494 66.029 80.7939 56.3462 83.5141ZM5.10756 57.0446L3.40346 57.4974C6.42021 68.3217 13.5072 77.5594 23.1809 83.2767L25.3956 79.4341C16.7446 74.3018 10.4006 66.0368 7.67909 56.3531L5.10756 57.0446ZM19.4429 72.4405C26.3022 79.1644 35.4969 82.9739 45.1016 83.0712V79.284C36.5023 79.182 28.2724 75.7735 22.119 69.7657L19.4429 72.4405ZM22.4672 22.4766L22.4143 22.5295C16.305 28.6673 12.8793 36.9775 12.8888 45.6376C12.8983 54.2976 16.342 62.6003 22.4648 68.7248C28.5928 74.8512 36.9016 78.2955 45.5668 78.3015C54.2321 78.3075 62.5456 74.8747 68.6822 68.7567L68.7178 68.7186C71.8042 65.6928 74.2601 62.0853 75.9437 58.1046C77.6273 54.1238 78.505 49.8488 78.5262 45.5268C78.5475 41.2047 77.7117 36.9213 76.0674 32.9242C74.423 28.9271 72.0026 25.2956 68.9461 22.2397C65.8896 19.1838 62.2577 16.7641 58.2603 15.1204C54.2629 13.4768 49.9793 12.6418 45.6572 12.6639C41.3352 12.6859 37.0604 13.5645 33.0799 15.2488C29.0995 16.9331 25.4924 19.3897 22.4672 22.4766ZM69.7452 69.0717L72.425 71.7515C79.1464 64.8909 82.9557 55.6979 83.0569 46.0941H79.2697C79.1674 54.693 75.7564 62.9221 69.7452 69.0717ZM8.12203 45.111H11.9166C12.0179 36.5147 15.4247 28.2874 21.43 22.1358L19.812 20.5264L18.7564 19.4547C12.0327 26.3135 8.22212 35.5068 8.12203 45.111ZM65.7833 11.7734C74.4356 16.9018 80.7805 25.1652 83.5011 34.8482L87.7804 33.704C84.7601 22.883 77.6738 13.6484 68.003 7.93084L65.7833 11.7734ZM7.92394 23.1902L11.7603 25.4049C16.8925 16.754 25.1568 10.4098 34.8401 7.68722L33.6946 3.41651C22.8734 6.43283 13.6386 13.5186 7.92394 23.1902ZM46.0785 11.9235C54.6782 12.0239 62.909 15.4311 69.0636 21.4381L71.7385 18.762C64.8781 12.039 55.6834 8.2298 46.0785 8.13139V11.9235ZM39.0456 75.4009C38.642 74.0757 38.236 72.7568 37.9382 71.3947C37.7475 70.5568 37.5851 69.7152 37.435 68.8675C37.2787 67.9557 37.2062 66.9997 36.9933 66.104C36.9933 66.0954 36.9933 66.0917 36.981 66.0892C36.9883 66.0768 36.9926 66.0629 36.9936 66.0485C36.9945 66.0341 36.9921 66.0197 36.9865 66.0064C36.9809 65.9931 36.9722 65.9813 36.9612 65.972C36.9502 65.9627 36.9372 65.956 36.9232 65.9527C35.3446 65.4913 33.7955 64.8736 32.2612 64.2879C30.6865 63.6924 29.1468 63.008 27.6497 62.2381C24.6537 60.6678 21.8504 58.7544 19.2965 56.5364C18.5624 55.9057 17.8459 55.2466 17.147 54.5592C16.8287 54.2442 16.5137 53.928 16.202 53.6106C15.0317 49.4543 14.7095 45.1051 15.2546 40.8218C15.5564 40.8973 15.8381 41.0375 16.0802 41.2328L16.1491 41.2844C16.4875 40.2792 17.1335 39.8375 17.9837 40.054C17.9262 39.7047 17.9233 39.3486 17.975 38.9984C18.3232 37.3066 19.9043 35.7993 21.0584 34.708L21.0904 34.6747C21.9819 33.8595 22.931 33.1095 23.9302 32.4305C25.2983 31.4173 26.5298 30.2316 27.5943 28.903C28.119 28.2253 28.601 27.5156 29.0375 26.7781C29.4485 26.1161 29.5838 25.6362 29.1151 24.9989C28.8059 24.5918 28.4201 24.2491 27.9794 23.99C27.9035 23.9621 27.8295 23.9292 27.7579 23.8915C27.6624 23.8454 27.57 23.7932 27.4811 23.7353C27.1727 23.5975 26.8494 23.4959 26.5177 23.4326C25.9123 23.3096 25.1224 23.3317 24.8517 24.1216C24.2611 25.9082 25.1372 28.2225 25.9812 29.843L25.7524 29.9783C24.6372 28.4923 23.9973 26.7038 23.9166 24.8476C23.8975 24.4907 23.951 24.1336 24.0739 23.7979C24.1967 23.4623 24.3864 23.1551 24.6315 22.8949C24.908 22.6646 25.2373 22.5065 25.59 22.4348C26.2989 21.9493 27.099 21.6129 27.9418 21.4458C28.7846 21.2787 29.6526 21.2845 30.4931 21.4627C31.0269 21.5976 31.5475 21.7804 32.0483 22.009C32.9791 22.538 34.0767 22.6916 35.1169 22.4384C35.6021 22.2672 36.0626 22.0326 36.4864 21.7408L36.6882 21.6178C39.2412 20.0712 42.2655 19.9223 45.1557 19.8952H45.3452C48.4138 19.8805 53.05 19.8571 55.5477 21.9697L55.5588 21.977C56.644 23.1447 57.1509 22.8113 57.9962 22.2539C58.4647 21.9121 58.987 21.6509 59.5415 21.4812C61.1438 21.1913 62.7953 21.362 64.3044 21.9734C64.3412 21.9784 64.3765 21.9914 64.4078 22.0115L64.5062 22.0509C64.5857 22.0678 64.6638 22.0904 64.74 22.1185C64.7917 22.1403 64.8367 22.1753 64.8707 22.22C64.9046 22.2647 64.9261 22.3176 64.9332 22.3732C65.4227 22.394 65.8923 22.5727 66.2718 22.8826C66.5175 23.144 66.7077 23.4524 66.8309 23.7893C66.9542 24.1261 67.008 24.4844 66.9891 24.8426C66.9084 26.7006 66.2671 28.4905 65.1497 29.9771L64.9295 29.8417C65.7612 28.2176 66.6409 25.9045 66.0491 24.1204C65.7772 23.3243 64.9984 23.3046 64.3856 23.4314C63.3576 23.6222 62.4335 24.1791 61.7846 24.9989C61.3207 25.6375 61.456 26.1161 61.8658 26.7731C62.3028 27.5128 62.786 28.2242 63.3127 28.903C64.3769 30.2377 65.6135 31.4251 66.9904 32.4342C67.9856 33.1144 68.9313 33.8643 69.8203 34.6784L69.8572 34.7166C71.0101 35.8129 72.5862 37.3103 72.9332 38.9922C72.9893 39.3456 72.9893 39.7056 72.9332 40.059C72.9458 40.0526 72.9597 40.0492 72.9738 40.0491C73.8068 39.8584 74.4355 40.3026 74.7677 41.2906C74.7914 41.2704 74.8164 41.2519 74.8428 41.2352C74.958 41.1452 75.0816 41.0665 75.2119 41.0002C75.4831 40.8523 75.7891 40.7801 76.0978 40.791C76.2708 42.1532 76.3575 43.525 76.3574 44.8981C76.3601 47.8764 75.9422 50.8402 75.1159 53.7016C74.1513 54.6859 73.1473 55.6444 72.1162 56.5315C69.5626 58.7499 66.7593 60.6634 63.763 62.2332C62.2654 63.002 60.7258 63.6864 59.1515 64.283C57.6147 64.8699 56.0681 65.4876 54.4834 65.9477C54.4625 65.953 54.4444 65.9662 54.4331 65.9846C54.4219 66.0031 54.4183 66.0251 54.4231 66.0462C54.4116 66.0499 54.4014 66.0569 54.3937 66.0663C54.3861 66.0757 54.3813 66.0871 54.38 66.0991C54.1586 66.9948 54.0847 67.9447 53.9334 68.8626C53.7858 69.7103 53.6221 70.5519 53.4326 71.3898C53.1336 72.7285 52.7362 74.0241 52.3425 75.3271L52.329 75.3923C47.9566 76.3793 43.4192 76.3793 39.0468 75.3923L39.0456 75.4009ZM48.3966 52.6558C48.8947 52.6564 49.3851 52.5334 49.8239 52.2977C51.0546 51.6696 52.1617 50.8243 53.0918 49.8025C53.1531 49.8327 53.2164 49.8586 53.2813 49.88C53.8503 50.0844 54.4649 50.127 55.0568 50.003L55.3976 49.9218L55.0887 49.752C54.6157 49.5087 54.1215 49.3089 53.6123 49.1553L53.5101 49.0987L53.3662 49.0507C53.2512 48.9856 53.1507 48.8976 53.0709 48.7923C52.9199 48.5783 52.7959 48.3465 52.7018 48.1021L52.5701 47.808L52.4582 48.1144C52.3852 48.3242 52.3619 48.5482 52.3903 48.7685C52.4187 48.9889 52.498 49.1996 52.6218 49.3841C52.1063 49.6204 51.6006 49.8763 51.1084 50.131L50.7479 50.3168C50.5203 50.4275 50.2939 50.5555 50.0773 50.6687C49.6712 50.912 49.2437 51.118 48.8002 51.2839C48.3521 51.4214 47.8769 51.4455 47.4172 51.354C46.8414 51.2331 46.285 51.0336 45.7636 50.761C45.7285 50.7439 45.6974 50.7198 45.672 50.6902C45.6467 50.6606 45.6276 50.6261 45.6161 50.5889C45.6046 50.5516 45.6008 50.5124 45.605 50.4737C45.6092 50.4349 45.6213 50.3974 45.6405 50.3635C45.5346 50.4181 45.4171 50.4466 45.2979 50.4466C45.1786 50.4466 45.0612 50.4181 44.9552 50.3635C44.9756 50.3972 44.9886 50.4347 44.9934 50.4737C44.9982 50.5128 44.9947 50.5524 44.983 50.5899C44.9714 50.6275 44.9519 50.6621 44.9259 50.6916C44.8999 50.7211 44.868 50.7447 44.8322 50.761C44.3131 51.0328 43.7585 51.2308 43.1847 51.3491C42.7217 51.4437 42.2425 51.4208 41.7906 51.2826C41.3522 51.1131 40.9287 50.9073 40.5245 50.6674C40.3031 50.553 40.0705 50.4214 39.8466 50.3155L39.4947 50.1322C38.9865 49.8726 38.4612 49.6031 37.9186 49.3509C38.0349 49.1686 38.1086 48.9624 38.1342 48.7477C38.1597 48.5329 38.1365 48.3152 38.0662 48.1107L37.9555 47.8043L37.825 48.0984C37.73 48.3408 37.6061 48.571 37.4559 48.7837C37.3829 48.8833 37.2925 48.9687 37.1889 49.0359L36.9724 49.1331L36.9268 49.1479C36.4155 49.3061 35.9183 49.507 35.4405 49.7483L35.1317 49.9181L35.4725 49.9993C36.0639 50.1234 36.6781 50.0808 37.2468 49.8763C37.3326 49.8501 37.4151 49.8141 37.4928 49.7693C38.4245 50.8101 39.5419 51.6684 40.7878 52.3002C41.2256 52.531 41.7129 52.6517 42.2077 52.6521C42.8225 52.6308 43.4233 52.4635 43.9605 52.1639C44.4978 51.8644 44.956 51.4413 45.2972 50.9295C45.6389 51.4441 46.0993 51.869 46.6395 52.1683C47.1798 52.4677 47.7841 52.6328 48.4015 52.6496L48.3966 52.6558ZM44.4163 44.6459C43.9529 44.7528 43.5488 45.0345 43.288 45.4321C43.1163 45.6808 43.0075 45.9675 42.9711 46.2676C42.9346 46.5676 42.9716 46.8721 43.0788 47.1547C43.1498 47.2729 43.2478 47.3725 43.3648 47.4455C43.4818 47.5184 43.6145 47.5625 43.7519 47.5742C43.9485 47.6163 44.139 47.6829 44.3191 47.7723C44.7007 48.0223 44.9801 48.4007 45.1065 48.8391C45.2382 49.1504 45.3526 49.442 45.6196 49.442H45.6418C45.8878 49.4321 46.0109 49.1602 46.1155 48.8821C46.2339 48.5288 46.4406 48.2116 46.7159 47.9606C46.93 47.7879 47.1911 47.6837 47.4652 47.6616C47.6024 47.6582 47.7366 47.6214 47.8563 47.5542C47.9759 47.4871 48.0774 47.3918 48.1518 47.2765C48.2881 46.94 48.3338 46.5736 48.2843 46.214C48.2349 45.8543 48.092 45.5139 47.87 45.2266C47.6335 44.8992 47.2894 44.6654 46.898 44.5659C46.7012 44.5104 46.4932 44.5078 46.2951 44.5585C46.0814 44.5963 45.8657 44.6213 45.6491 44.6336C45.4238 44.6459 45.1977 44.6385 44.9737 44.6114C44.9014 44.6023 44.8287 44.5974 44.7559 44.5967C44.6426 44.5981 44.5301 44.6146 44.4212 44.6459H44.4163ZM57.9925 37.6326C57.2718 37.6633 56.5664 37.8502 55.925 38.1803C55.2837 38.5105 54.7217 38.976 54.2779 39.5447C53.8128 40.1131 52.5554 41.6105 52.8014 42.9012C53.0758 44.2964 54.9189 44.529 56.0878 44.529C56.4791 44.529 56.7928 44.5032 56.9553 44.4884C58.0665 44.3901 59.1299 43.9904 60.0308 43.3323C60.9317 42.6743 61.6359 41.7829 62.0676 40.7541C62.2104 40.3899 62.2578 39.9951 62.2054 39.6074C62.0294 38.6231 61.0697 38.3155 60.0595 37.998C59.4778 37.7729 58.8621 37.648 58.2386 37.6289C58.166 37.6289 58.0798 37.6388 57.9974 37.6388L57.9925 37.6326ZM31.3581 37.9919C30.3467 38.3093 29.3894 38.6071 29.2135 39.6013C29.1586 39.9891 29.2065 40.3845 29.3525 40.748C29.7832 41.7769 30.4868 42.6686 31.3874 43.3267C32.288 43.9849 33.3512 44.3844 34.4624 44.4822C34.6235 44.4958 34.9336 44.5228 35.3298 44.5228C36.5011 44.5228 38.3492 44.2952 38.6162 42.9024C38.8623 41.6105 37.611 40.1143 37.1397 39.5459C36.6966 38.9781 36.1353 38.5135 35.4947 38.1842C34.8542 37.8549 34.1497 37.6688 33.4301 37.6388C33.3427 37.6388 33.2627 37.6388 33.184 37.6388C32.5613 37.654 31.9457 37.7742 31.363 37.9944L31.3581 37.9919ZM42.236 42.8397L41.8546 43.3318L42.3997 43.0414C43.4617 42.4629 44.6594 42.1795 45.8681 42.2208C47.0628 42.1238 48.2582 42.3993 49.2899 43.0095L49.8374 43.3244L49.4683 42.815C49.0416 42.2775 48.4865 41.8559 47.8541 41.5891C47.2218 41.3223 46.5325 41.2188 45.8497 41.2881C45.8017 41.2881 45.7476 41.2881 45.6922 41.2881C45.0371 41.2709 44.3866 41.4017 43.789 41.6708C43.1915 41.9398 42.6623 42.3402 42.2409 42.8421L42.236 42.8397ZM49.7599 35.4241C49.6238 35.6661 49.54 35.9339 49.5138 36.2103C49.4888 36.4333 49.5085 36.6591 49.5719 36.8744C49.6353 37.0897 49.741 37.2902 49.8829 37.4641C50.3585 38.0056 51.0281 38.3384 51.747 38.3905C51.8508 38.401 51.9552 38.4051 52.0595 38.4028C52.7505 38.3814 53.4335 38.2489 54.0823 38.0104C54.7353 37.7793 55.3615 37.4786 55.95 37.1134C56.2342 36.951 56.5 36.7996 56.7682 36.6594C57.6384 36.2518 58.5591 35.9622 59.5059 35.7981L60.4324 35.6246L59.4923 35.5336C58.4664 35.446 57.4337 35.5842 56.4668 35.9384C56.0626 36.0992 55.6671 36.2812 55.2819 36.4834C54.806 36.7326 54.3125 36.9469 53.8054 37.1245C52.9817 37.4953 52.0644 37.6061 51.1761 37.4419C50.9734 37.4062 50.78 37.3305 50.6069 37.2192C50.4339 37.1078 50.2848 36.9631 50.1684 36.7935C50.057 36.602 49.9849 36.3901 49.9564 36.1704C49.9279 35.9507 49.9435 35.7275 50.0023 35.5139L50.1955 34.6194L49.7599 35.4241ZM31.9364 35.5336L30.9926 35.6246L31.9241 35.7981C32.8711 35.9628 33.7921 36.2524 34.6629 36.6594C34.9299 36.7996 35.1908 36.951 35.475 37.1134C36.0645 37.4801 36.6924 37.7809 37.3476 38.0104C37.9948 38.2488 38.6762 38.3813 39.3655 38.4028C39.4698 38.4052 39.5742 38.4011 39.678 38.3905C40.3977 38.3389 41.0682 38.0061 41.5445 37.4641C41.6875 37.2908 41.7938 37.0904 41.8573 36.8749C41.9207 36.6594 41.9399 36.4334 41.9137 36.2103C41.8899 35.9344 41.8086 35.6666 41.675 35.4241L41.2394 34.6206L41.4326 35.5151C41.4927 35.7284 41.5092 35.9517 41.4811 36.1716C41.453 36.3914 41.3808 36.6034 41.2689 36.7947C41.1514 36.9641 41.0016 37.1086 40.828 37.2199C40.6544 37.3312 40.4605 37.4071 40.2575 37.4431C39.3704 37.6072 38.4543 37.4964 37.6319 37.1257C37.1239 36.9505 36.6302 36.7362 36.1554 36.4847C35.7715 36.2976 35.3827 36.0946 34.9693 35.9396C34.1945 35.6567 33.3764 35.511 32.5516 35.509C32.3412 35.504 32.1369 35.5102 31.9364 35.5286V35.5336ZM60.5615 24.5929C60.5615 24.6261 60.5505 24.6556 60.5505 24.6876C60.5726 24.6422 60.5977 24.5982 60.6255 24.556C60.6044 24.5678 60.5826 24.5785 60.5603 24.5879L60.5615 24.5929ZM38.3701 24.0736C38.4338 24.0839 38.4964 24.1 38.5571 24.1216L38.5867 24.1056C38.6063 24.0527 38.626 24.0035 38.6494 23.9494C38.5559 23.99 38.4624 24.0306 38.3701 24.0736ZM43.0678 22.9835C43.1108 23.0081 43.1502 23.0327 43.1908 23.0586C43.215 23.0572 43.2392 23.0605 43.2622 23.0684C43.246 23.0088 43.2328 22.9485 43.2228 22.8875C43.1687 22.9183 43.1194 22.9552 43.0702 22.9835H43.0678ZM26.5866 22.3978C26.6235 22.3978 26.6616 22.3978 26.6973 22.4089C26.6994 22.3924 26.7049 22.3765 26.7133 22.3622C26.6711 22.3712 26.6296 22.3831 26.5891 22.3978H26.5866ZM54.9005 71.3799C55.2524 69.7607 55.3533 68.8798 55.6769 67.001C57.4878 66.4682 59.2435 65.7628 60.9196 64.8945C66.2757 62.7992 71.0437 59.4359 74.8145 55.0932C73.3535 59.9622 70.662 64.3725 66.9999 67.8982C63.3377 71.4239 58.8285 73.9461 53.9076 75.2212C54.3124 73.9662 54.6237 72.6583 54.903 71.3787L54.9005 71.3799ZM16.501 55.0919C20.2722 59.4349 25.0406 62.7981 30.3971 64.8933C32.0737 65.7626 33.8302 66.468 35.6423 66.9997C35.9622 68.8785 36.0656 69.7595 36.4187 71.3787C36.6968 72.6571 37.0093 73.9625 37.4153 75.22C32.4929 73.9462 27.9821 71.4246 24.3185 67.8988C20.6549 64.3729 17.9625 59.962 16.501 55.0919Z" fill="white"/>
</svg>
