<svg width="15" height="16" viewBox="0 0 15 16" fill="none" xmlns="http://www.w3.org/2000/svg">
<path d="M11.6129 15.1859L7.5 11.0739L3.38714 15.1859C3.15707 15.4146 2.84586 15.5422 2.52152 15.5422C2.19718 15.5422 1.88597 15.4146 1.65591 15.1859L0.357484 13.8874C0.127965 13.6578 0 13.3464 0 13.0217C0 12.697 0.127965 12.3856 0.357484 12.156L4.47035 8.04403L0.357484 3.93084C0.127965 3.70123 0 3.38982 0 3.06515C0 2.74049 0.127965 2.42908 0.357484 2.19947L1.65591 0.900945C1.8855 0.671407 2.19688 0.542236 2.52152 0.542236C2.84616 0.542236 3.15755 0.671407 3.38714 0.900945L7.5 5.01294L11.6129 0.900945C11.8425 0.671407 12.1538 0.542236 12.4785 0.542236C12.8031 0.542236 13.1145 0.671407 13.3441 0.900945L14.6413 2.19947C14.8708 2.42908 15 2.74049 15 3.06515C15 3.38982 14.8708 3.70123 14.6413 3.93084L10.5297 8.04403L14.6413 12.156C14.8708 12.3856 15 12.697 15 13.0217C15 13.3464 14.8708 13.6578 14.6413 13.8874L13.3441 15.1859C13.1141 15.4147 12.8028 15.5428 12.4785 15.5422C12.1542 15.5428 11.8428 15.4147 11.6129 15.1859Z" fill="white"/>
</svg>
