<svg width="28" height="42" viewBox="0 0 28 42" fill="none" xmlns="http://www.w3.org/2000/svg">
<path d="M3.45776 10.9071C4.01809 5.54724 8.58384 1.5 14 1.5C19.4162 1.5 23.9819 5.54728 24.5423 10.9071L26.2336 27.0829C26.9861 34.2787 21.2725 40.5 14.0003 40.5C6.72811 40.5 1.01391 34.2786 1.7664 27.0829L3.45776 10.9071ZM3.45776 10.9071C3.45776 10.9071 3.45776 10.9071 3.45776 10.9071L1.7664 27.0829L3.45776 10.9071Z" stroke="white" stroke-width="3" stroke-linecap="round" stroke-linejoin="round"/>
<path d="M7.9664 13.7127C8.28567 10.3532 10.8912 7.7998 14 7.7998C17.1087 7.7998 19.7142 10.3532 20.0336 13.7127L21.1612 25.575C21.5997 30.1878 18.2685 34.1998 14.0002 34.1998C9.73179 34.1998 6.40029 30.1877 6.83882 25.575L7.9664 13.7127Z" stroke="white" stroke-linecap="round" stroke-linejoin="round"/>
</svg>
