<svg width="13" height="17" viewBox="0 0 13 17" fill="none" xmlns="http://www.w3.org/2000/svg">
<path opacity="0.5" fill-rule="evenodd" clip-rule="evenodd" d="M8.82012 16.5935L3.74484 11.9332L0 8.49848L3.74484 5.0641L8.82012 0.403835C9.10392 0.144608 9.48834 -0.000656128 9.88844 1.90735e-06C10.2885 -0.000656128 10.673 0.144608 10.9568 0.403835L12.5571 1.87549C12.8403 2.13572 13 2.48864 13 2.85661C13 3.22454 12.8403 3.5775 12.5571 3.8377L7.48366 8.49796L12.5571 13.1596C12.8403 13.4198 13 13.7727 13 14.1407C13 14.5087 12.8403 14.8616 12.5571 15.1218L10.9568 16.5935C10.6736 16.8536 10.2891 17 9.88844 17C9.48774 17 9.10331 16.8536 8.82012 16.5935Z" fill="white"/>
</svg>
