<svg width="216" height="15" viewBox="0 0 216 15" fill="none" xmlns="http://www.w3.org/2000/svg">
<g opacity="0.5" clip-path="url(#clip0_1566_6254)">
<path d="M152.884 10.4408C153.053 10.2732 153.242 10.125 153.446 9.99928C153.721 9.8277 154.015 9.68783 154.323 9.58246C154.689 9.45565 155.073 9.38014 155.461 9.35817C155.915 9.33379 156.37 9.382 156.808 9.5009C156.795 9.58722 156.788 9.67414 156.785 9.76127C156.779 9.93357 156.789 10.106 156.816 10.2765C156.848 10.4913 156.913 10.7001 157.009 10.8961C157.118 11.1171 157.277 11.3113 157.474 11.4646C157.504 11.4881 157.547 11.5215 157.602 11.5591C157.666 11.6028 157.733 11.6421 157.803 11.6768C157.888 11.7195 157.977 11.7543 158.069 11.7807C158.221 11.8241 158.379 11.8413 158.538 11.8312C158.621 11.8264 158.703 11.8147 158.784 11.7963C158.885 11.7738 158.983 11.7386 159.075 11.6917C159.179 11.6385 159.272 11.5671 159.349 11.4811C159.435 11.384 159.498 11.2691 159.533 11.145C159.565 11.0268 159.575 10.9041 159.564 10.7823C159.553 10.6637 159.528 10.5469 159.487 10.4345C159.451 10.3324 159.404 10.2344 159.347 10.142C159.304 10.0734 159.255 10.0089 159.199 9.94909C159.151 9.89611 159.098 9.84658 159.042 9.80087C158.99 9.75813 158.94 9.72245 158.895 9.69226C158.85 9.66206 158.81 9.63736 158.778 9.61736C158.561 9.48059 158.332 9.36251 158.095 9.26446C157.88 9.17708 157.66 9.10398 157.436 9.04566C157.219 8.98841 157.006 8.94371 156.793 8.90136C156.58 8.85901 156.37 8.8198 156.159 8.77314C155.878 8.7104 155.602 8.64962 155.338 8.58335C155.075 8.51708 154.822 8.44533 154.585 8.36141C154.356 8.28253 154.134 8.18357 153.924 8.06576C153.724 7.95393 153.541 7.81578 153.38 7.65521C153.176 7.447 153.017 7.20119 152.911 6.93215C152.813 6.68033 152.753 6.41632 152.73 6.14792C152.709 5.9021 152.709 5.65499 152.73 5.40917C152.748 5.18175 152.779 4.97785 152.803 4.81708C152.856 4.46274 152.947 4.11485 153.075 3.77915C153.216 3.40981 153.399 3.05705 153.62 2.72749C153.861 2.3696 154.146 2.04239 154.469 1.75348C154.827 1.43562 155.226 1.16569 155.656 0.950817C155.822 0.868298 155.992 0.794476 156.167 0.729663C156.498 0.605257 156.838 0.506529 157.185 0.4344C157.65 0.337117 158.124 0.288481 158.599 0.289317C159.172 0.290759 159.742 0.367923 160.294 0.518705C160.431 0.557917 160.622 0.608107 160.846 0.683786C161.102 0.769821 161.353 0.87212 161.596 0.990028C161.886 1.13063 162.162 1.29818 162.419 1.49037C162.709 1.70633 162.968 1.95779 163.191 2.23853C163.401 2.50459 163.576 2.79565 163.711 3.10471C163.83 3.37901 163.921 3.66416 163.983 3.95599C164.035 4.2059 164.07 4.45901 164.088 4.71356C164.104 4.94177 164.106 5.14097 164.108 5.2982C164.108 5.39427 164.108 5.48642 164.105 5.57269C164.101 5.65895 164.096 5.74247 164.089 5.81933C164.083 5.89618 164.075 5.96833 164.067 6.0346C164.059 6.10087 164.05 6.16125 164.042 6.21497C163.334 6.3428 162.745 6.42867 162.255 6.48004C161.862 6.52602 161.466 6.54567 161.069 6.53886C160.835 6.53887 160.603 6.50423 160.379 6.43612C160.254 6.40269 160.147 6.32476 160.078 6.21772C160.041 6.14739 160.032 6.06641 160.052 5.9899C160.074 5.9027 160.103 5.81724 160.138 5.73424C160.179 5.63557 160.208 5.53287 160.225 5.42799C160.243 5.30113 160.234 5.17194 160.197 5.04882C160.151 4.89523 160.075 4.75139 159.975 4.62455C159.866 4.48566 159.738 4.3626 159.594 4.2591C159.444 4.15074 159.28 4.06312 159.106 3.99873C158.933 3.93384 158.75 3.89715 158.564 3.89012C158.297 3.87932 158.032 3.94502 157.803 4.07912C157.591 4.20747 157.41 4.38039 157.274 4.58534C157.14 4.78544 157.038 5.00497 156.974 5.23586C156.914 5.43728 156.889 5.6468 156.899 5.85619C156.904 5.93794 156.939 6.01528 156.996 6.07538C157.062 6.14343 157.14 6.19969 157.226 6.24164C157.329 6.29389 157.435 6.33998 157.544 6.37966C157.661 6.42358 157.786 6.4671 157.909 6.51376C158.609 6.77766 159.187 6.97528 159.674 7.13331C160.162 7.29133 160.559 7.40779 160.897 7.51444C161.235 7.6211 161.514 7.7105 161.766 7.8152C162.015 7.91629 162.251 8.04328 162.472 8.19398C162.505 8.21672 162.609 8.28926 162.75 8.40533C162.926 8.55062 163.092 8.70785 163.246 8.87587C163.44 9.08665 163.609 9.31832 163.749 9.56639C163.903 9.83543 164.004 10.1297 164.049 10.4345C164.106 10.9009 164.017 11.3732 163.794 11.7897C163.552 12.2426 163.223 12.6463 162.826 12.979C162.395 13.3462 161.918 13.6574 161.405 13.9048C160.895 14.1557 160.355 14.3453 159.797 14.4694C159.314 14.5738 158.819 14.6263 158.324 14.6262C157.813 14.6271 157.304 14.5745 156.806 14.4694C156.308 14.3656 155.825 14.2033 155.368 13.9859C154.917 13.7724 154.502 13.4949 154.135 13.1625C154.009 13.0279 153.892 12.8856 153.785 12.7366C153.59 12.4773 153.409 12.2085 153.242 11.9312C153.071 11.658 152.934 11.3661 152.833 11.0615C152.787 10.9624 152.767 10.8534 152.776 10.7448C152.785 10.6362 152.822 10.5316 152.884 10.4408Z" fill="white"/>
<path d="M203.755 10.4407C203.914 10.273 204.092 10.1247 204.288 9.99921C204.552 9.82692 204.837 9.68694 205.137 9.58239C205.498 9.4549 205.876 9.37935 206.26 9.3581C206.717 9.33418 207.175 9.38237 207.617 9.50083C207.61 9.58746 207.608 9.67439 207.612 9.76119C207.618 9.93454 207.64 10.107 207.678 10.2764C207.725 10.4929 207.804 10.7016 207.913 10.896C208.038 11.1176 208.21 11.3113 208.416 11.4645C208.448 11.4881 208.494 11.5214 208.551 11.559C208.618 11.6025 208.687 11.6418 208.759 11.6767C208.847 11.7193 208.938 11.7541 209.032 11.7806C209.14 11.8108 209.251 11.8284 209.362 11.8331C209.41 11.8355 209.457 11.8355 209.504 11.8331C209.587 11.8283 209.668 11.8166 209.749 11.7982C209.848 11.7759 209.943 11.7407 210.032 11.6935C210.132 11.6408 210.221 11.5692 210.292 11.483C210.372 11.385 210.427 11.2698 210.453 11.1469C210.477 11.0273 210.479 10.9046 210.459 10.7842C210.44 10.6648 210.407 10.548 210.359 10.4364C210.316 10.3339 210.262 10.2359 210.198 10.1439C210.151 10.0752 210.097 10.0107 210.038 9.95098C209.985 9.89802 209.929 9.84851 209.87 9.80276C209.815 9.76002 209.763 9.72433 209.715 9.69414C209.668 9.66395 209.626 9.63925 209.595 9.61925C209.369 9.48281 209.133 9.36477 208.888 9.26634C208.668 9.17922 208.443 9.10614 208.214 9.04754C207.994 8.99029 207.777 8.94559 207.562 8.90324C207.346 8.8609 207.133 8.82168 206.919 8.77502C206.632 8.71228 206.353 8.65151 206.084 8.58524C205.816 8.51897 205.558 8.44721 205.316 8.3633C205.08 8.2841 204.851 8.18518 204.632 8.06764C204.425 7.95537 204.232 7.81739 204.061 7.6571C203.842 7.44929 203.664 7.20307 203.538 6.93129C203.424 6.68151 203.345 6.41767 203.304 6.14706C203.266 5.90259 203.249 5.65549 203.254 5.40832C203.257 5.18089 203.273 4.97699 203.286 4.81622C203.347 4.07886 203.578 3.36445 203.961 2.72624C204.177 2.36933 204.441 2.04216 204.746 1.7534C205.082 1.43481 205.464 1.16455 205.878 0.950743C206.039 0.868045 206.204 0.794211 206.373 0.729589C206.697 0.604699 207.031 0.505947 207.372 0.434326C208.402 0.215703 209.471 0.244635 210.487 0.518631C210.626 0.557843 210.82 0.608033 211.049 0.683712C211.313 0.770033 211.57 0.872312 211.821 0.989954C212.122 1.13108 212.409 1.29855 212.679 1.49029C212.983 1.7064 213.259 1.95761 213.501 2.23845C213.729 2.50361 213.923 2.79441 214.08 3.10463C214.217 3.37754 214.328 3.66259 214.41 3.95592C214.479 4.20477 214.532 4.45785 214.567 4.71349C214.599 4.9417 214.615 5.14089 214.628 5.29813C214.635 5.3942 214.64 5.48635 214.643 5.57261C214.646 5.65888 214.646 5.7424 214.643 5.81925C214.64 5.89611 214.639 5.96826 214.636 6.03452C214.632 6.10079 214.628 6.16118 214.623 6.2149C213.924 6.34273 213.34 6.4286 212.855 6.47997C212.463 6.52601 212.068 6.54566 211.673 6.53879C211.437 6.53844 211.202 6.50382 210.976 6.43605C210.847 6.40171 210.735 6.3244 210.659 6.21764C210.619 6.14877 210.604 6.06801 210.619 5.98982C210.636 5.90301 210.659 5.81754 210.688 5.73416C210.722 5.63484 210.744 5.53209 210.753 5.42792C210.763 5.29928 210.744 5.17017 210.7 5.04875C210.642 4.89407 210.557 4.75047 210.448 4.62448C210.33 4.48554 210.194 4.36263 210.042 4.25902C209.886 4.1511 209.717 4.06357 209.537 3.99866C209.361 3.93415 209.176 3.89749 208.988 3.89004C208.725 3.87799 208.464 3.94388 208.24 4.07904C208.036 4.20719 207.867 4.3807 207.746 4.58526C207.624 4.78686 207.538 5.00666 207.49 5.23578C207.444 5.4397 207.432 5.6497 207.456 5.85729C207.468 5.94032 207.507 6.01724 207.568 6.07648C207.639 6.14439 207.72 6.20055 207.809 6.24274C207.916 6.29489 208.026 6.34097 208.138 6.38076C208.258 6.42468 208.384 6.4682 208.512 6.51487C209.23 6.77876 209.821 6.97639 210.321 7.13441C210.82 7.29243 211.224 7.40889 211.569 7.51555C211.914 7.6222 212.2 7.7116 212.459 7.8163C212.715 7.91792 212.96 8.04484 213.191 8.19508C213.225 8.21783 213.334 8.29037 213.483 8.40643C213.669 8.55184 213.846 8.70903 214.011 8.87697C214.219 9.08736 214.404 9.31884 214.562 9.56749C214.733 9.83407 214.855 10.1279 214.921 10.4356C215.011 10.8927 214.955 11.3659 214.76 11.7908C214.55 12.2418 214.248 12.6465 213.873 12.9801C213.467 13.3482 213.01 13.6597 212.516 13.9059C211.582 14.3849 210.541 14.6324 209.486 14.6266C208.972 14.627 208.461 14.5744 207.959 14.4697C207.451 14.3649 206.957 14.2026 206.488 13.9862C206.021 13.7715 205.587 13.4944 205.198 13.1628C205.062 13.0287 204.934 12.8869 204.815 12.7381C204.633 12.5154 204.413 12.2284 204.217 11.9327C204.028 11.6607 203.871 11.369 203.748 11.063C203.653 10.7979 203.636 10.5725 203.755 10.4407Z" fill="white"/>
<path d="M107.062 5.80884C107.062 5.80884 107.051 5.652 107.032 5.38222C107.014 5.11244 106.988 4.7368 106.958 4.2988C106.929 3.86081 106.896 3.36322 106.864 2.85307C106.832 2.34293 106.798 1.82259 106.77 1.33715C106.77 1.30892 106.767 1.27206 106.767 1.23089C106.768 1.1845 106.772 1.13822 106.78 1.09247C106.788 1.04219 106.803 0.993087 106.824 0.946214C106.847 0.894317 106.879 0.846608 106.919 0.805052C106.963 0.758248 107.016 0.71937 107.074 0.690162C107.129 0.662786 107.187 0.641984 107.247 0.628208C107.302 0.615402 107.358 0.60662 107.414 0.601936C107.467 0.597231 107.512 0.596055 107.55 0.59527L108.186 0.582723L108.652 0.572528L108.946 0.568214H109.064C109.227 0.568214 109.385 0.561156 109.551 0.552138C109.717 0.543119 109.886 0.529787 110.071 0.518024C110.256 0.50626 110.454 0.494497 110.677 0.484694C110.899 0.474891 111.145 0.468225 111.424 0.465088C111.469 0.465088 111.528 0.465088 111.594 0.468225C111.665 0.471859 111.737 0.48064 111.807 0.494497C111.881 0.508766 111.954 0.532633 112.022 0.56547C112.09 0.5981 112.149 0.645118 112.196 0.703102C112.22 0.73364 112.24 0.767124 112.255 0.8027C112.269 0.83369 112.279 0.865869 112.285 0.898768C112.291 0.925423 112.294 0.952414 112.296 0.979544C112.296 1.00268 112.296 1.02111 112.296 1.03366C112.296 1.1411 112.3 1.35911 112.31 1.6728C112.32 1.9865 112.335 2.39665 112.353 2.88836C112.371 3.38008 112.393 3.9557 112.419 4.59877C112.445 5.24184 112.473 5.95549 112.504 6.72247L112.684 6.71581L113.079 6.7013L113.474 6.68718L113.654 6.68052L113.976 6.66522C114.081 6.66013 114.185 6.65581 114.283 6.65189C114.382 6.64797 114.477 6.64483 114.565 6.64248C114.653 6.64013 114.734 6.63895 114.806 6.63895L114.754 0.983465C114.753 0.948245 114.76 0.913276 114.773 0.880339C114.785 0.847649 114.803 0.817286 114.826 0.790544C114.85 0.763103 114.878 0.739427 114.91 0.720355C114.943 0.700314 114.979 0.685121 115.016 0.675262H115.924C116.273 0.675262 116.608 0.671341 116.936 0.668596C117.264 0.665851 117.584 0.663891 117.903 0.668596C118.223 0.673301 118.542 0.681928 118.868 0.702318C119.194 0.722708 119.524 0.753293 119.868 0.799563C119.933 0.804181 119.996 0.825624 120.051 0.861713C120.105 0.897801 120.148 0.947249 120.177 1.00503C120.245 1.14185 120.285 1.29041 120.294 1.44224C120.308 1.60577 120.311 1.77001 120.304 1.93395C120.299 2.08727 120.29 2.21981 120.292 2.30254L120.298 2.67427C120.264 3.57509 120.229 4.47826 120.195 5.38379C120.161 6.28932 120.126 7.1985 120.092 8.11135L119.989 10.8613C119.954 11.7825 119.919 12.7059 119.884 13.6316C119.864 13.6867 119.854 13.7446 119.853 13.8029C119.85 13.8729 119.841 13.9425 119.825 14.0107C119.809 14.0793 119.769 14.1405 119.713 14.184C119.63 14.2371 119.53 14.261 119.431 14.2519C119.3 14.2487 119.021 14.2335 118.668 14.2127C118.315 14.1919 117.893 14.1629 117.472 14.1342C117.051 14.1056 116.634 14.0762 116.295 14.0527L115.591 14.0033C115.568 14.0018 115.546 13.999 115.523 13.995C115.506 13.992 115.489 13.9878 115.472 13.9825C115.459 13.9784 115.446 13.9733 115.434 13.9672C115.425 13.9624 115.416 13.9569 115.407 13.9507C115.373 13.6248 115.338 13.299 115.303 12.9736C115.268 12.6481 115.234 12.3232 115.199 11.9988L115.096 11.0267L114.993 10.057C114.82 10.0751 114.614 10.0931 114.39 10.1111C114.166 10.1292 113.927 10.1472 113.686 10.1653C113.446 10.1833 113.204 10.2013 112.983 10.2194C112.762 10.2374 112.553 10.2554 112.38 10.2735L112.433 11.153C112.45 11.4468 112.468 11.7408 112.485 12.0349L112.538 12.9187C112.555 13.2138 112.573 13.5092 112.591 13.8049C112.242 13.9224 111.886 14.0171 111.524 14.0884C111.131 14.1668 110.704 14.235 110.254 14.2876C109.805 14.3401 109.334 14.3793 108.851 14.4052C108.369 14.4311 107.878 14.4444 107.386 14.4444H107.185L107.095 14.3381L107.062 5.80884Z" fill="white"/>
<path d="M168.047 4.11636C167.877 4.12046 167.708 4.14348 167.543 4.18498C167.366 4.2242 167.181 4.28105 166.994 4.33595C166.806 4.39084 166.62 4.44574 166.44 4.48691C166.27 4.52866 166.097 4.55168 165.923 4.55553C165.794 4.55553 165.674 4.55867 165.561 4.56063C165.448 4.56259 165.347 4.56338 165.253 4.55828C165.167 4.55537 165.082 4.54367 164.999 4.52338C164.927 4.50597 164.86 4.47433 164.802 4.43045C164.753 4.39219 164.713 4.34569 164.681 4.29321C164.652 4.24519 164.63 4.19363 164.615 4.13989C164.602 4.09207 164.593 4.04329 164.588 3.99402C164.581 3.94932 164.581 3.90893 164.581 3.87757C164.553 3.38311 164.496 2.92041 164.439 2.50555C164.383 2.09069 164.329 1.72446 164.31 1.41743C164.277 1.17566 164.306 0.929621 164.394 0.701427C164.441 0.614266 164.514 0.543068 164.603 0.497323C164.692 0.451577 164.794 0.433456 164.894 0.445375C165.152 0.446552 165.505 0.430475 165.926 0.404595C166.348 0.378716 166.84 0.346562 167.376 0.316369C167.912 0.286176 168.493 0.258728 169.094 0.244612C169.695 0.230496 170.316 0.229712 170.933 0.252847C171.55 0.275981 172.127 0.317546 172.664 0.370481C173.201 0.423417 173.7 0.483019 174.163 0.544581C174.625 0.606143 175.05 0.668489 175.44 0.722209C175.83 0.775929 176.185 0.821414 176.507 0.849255C176.524 1.08871 176.543 1.3143 176.563 1.52605C176.583 1.73779 176.604 1.93463 176.625 2.11657C176.647 2.29956 176.668 2.46948 176.689 2.62632C176.711 2.78317 176.731 2.92695 176.751 3.05765C176.772 3.19254 176.795 3.33645 176.812 3.48192C176.83 3.62498 176.837 3.76917 176.832 3.91325C176.829 4.04613 176.804 4.17759 176.756 4.30223C176.711 4.42027 176.631 4.52311 176.528 4.59867C176.515 4.60769 176.503 4.61631 176.491 4.62376C176.479 4.63121 176.467 4.63827 176.456 4.64415L176.424 4.66062L176.397 4.67317C176.364 4.67827 176.296 4.68297 176.211 4.68768C176.126 4.69238 176.022 4.6967 175.918 4.70062C175.815 4.70454 175.71 4.70728 175.621 4.70964C175.532 4.71199 175.46 4.71316 175.42 4.71316H175.175C175.009 4.71316 174.798 4.70728 174.57 4.70062C174.343 4.69395 174.098 4.68572 173.864 4.67709C173.63 4.66846 173.407 4.65944 173.221 4.6516L172.808 4.63396C173.149 5.79266 173.438 6.88078 173.674 7.87126C173.91 8.86175 174.093 9.76009 174.218 10.531C174.329 11.1635 174.396 11.8027 174.419 12.4441C174.457 12.7855 174.4 13.1306 174.255 13.4432C174.185 13.5383 174.108 13.627 174.022 13.7083C173.951 13.7762 173.875 13.8393 173.795 13.8973C173.726 13.9475 173.666 13.9851 173.624 14.0102C173.581 14.0353 173.556 14.0494 173.556 14.0494C173.453 14.1001 173.345 14.1412 173.234 14.1722C173.133 14.2002 173.029 14.2208 172.925 14.2337C172.824 14.2467 172.727 14.2529 172.635 14.2561C172.542 14.2592 172.454 14.2596 172.372 14.2604C172.236 14.2604 172.086 14.2655 171.923 14.2718C171.759 14.278 171.582 14.2878 171.392 14.302C171.201 14.3161 170.997 14.3337 170.779 14.3573C170.561 14.3808 170.33 14.4094 170.086 14.4443C170.001 14.4485 169.915 14.4485 169.83 14.4443C169.738 14.4393 169.646 14.4276 169.555 14.4094C169.461 14.3905 169.369 14.3622 169.28 14.3251C169.189 14.2867 169.103 14.2364 169.026 14.1757C168.895 14.0734 168.794 13.9397 168.732 13.7879C168.666 13.6157 168.626 13.4348 168.614 13.2511C168.595 13.0452 168.593 12.8115 168.595 12.5453C168.597 12.279 168.602 11.985 168.599 11.6552C168.599 11.4623 168.588 11.2693 168.574 11.0764C168.56 10.8835 168.543 10.6906 168.525 10.4977C168.507 10.3047 168.488 10.1122 168.473 9.91968C168.458 9.72715 168.445 9.53501 168.44 9.34327C168.432 9.05702 168.421 8.73627 168.403 8.37827C168.386 8.02027 168.363 7.62658 168.333 7.1933C168.302 6.76001 168.264 6.28908 168.217 5.77658C168.17 5.26409 168.114 4.71042 168.047 4.11636Z" fill="white"/>
<path d="M187.383 0.725324C187.43 0.754952 187.47 0.79497 187.498 0.842164C187.527 0.889358 187.544 0.94241 187.547 0.99706C187.566 1.14745 187.566 1.29957 187.547 1.44995C187.532 1.61896 187.505 1.80011 187.484 1.9746C187.462 2.13612 187.452 2.29908 187.456 2.462C187.463 2.60552 187.484 2.7757 187.509 2.95019C187.534 3.12468 187.562 3.30819 187.582 3.47876C187.603 3.63001 187.611 3.78269 187.605 3.93518C187.611 4.03438 187.576 4.13176 187.509 4.20614C187.265 4.27268 187.011 4.29918 186.759 4.28456C186.357 4.29436 185.838 4.2924 185.318 4.29201C184.798 4.29162 184.275 4.29201 183.864 4.30809C183.596 4.29562 183.328 4.3311 183.073 4.41278C182.992 4.48012 182.934 4.57044 182.908 4.67119C182.875 4.7859 182.862 4.9051 182.868 5.02409C182.873 5.14156 182.895 5.25772 182.935 5.36876C182.962 5.45814 183.016 5.53789 183.088 5.59854C183.27 5.65557 183.462 5.67494 183.651 5.6554C183.937 5.65265 184.297 5.63383 184.656 5.61344C185.015 5.59305 185.376 5.57148 185.661 5.56403C185.85 5.54471 186.041 5.5565 186.227 5.59893C186.292 5.63461 186.347 5.8193 186.388 6.08084C186.433 6.39277 186.46 6.70698 186.468 7.02192C186.48 7.34373 186.473 7.66592 186.446 7.98692C186.45 8.17859 186.402 8.36781 186.307 8.53588C186.132 8.61762 185.938 8.65266 185.745 8.63744C185.463 8.64685 185.106 8.63744 184.748 8.62411C184.391 8.61077 184.031 8.5943 183.741 8.59038C183.541 8.57426 183.34 8.58747 183.144 8.62959C183.097 8.65797 183.057 8.69561 183.026 8.74011C182.994 8.78461 182.973 8.83498 182.963 8.888C182.924 9.03047 182.908 9.17789 182.914 9.32521C182.917 9.47386 182.942 9.62129 182.989 9.76281C183.016 9.87001 183.084 9.96284 183.18 10.0216C183.359 10.0681 183.544 10.0888 183.729 10.0832C183.99 10.0902 184.309 10.0855 184.616 10.0765C184.924 10.0675 185.222 10.0538 185.443 10.0424C185.663 10.031 185.807 10.022 185.807 10.022C185.807 10.022 185.907 10.0161 186.062 10.0091C186.217 10.002 186.424 9.99337 186.642 9.98749C186.861 9.98161 187.085 9.97887 187.271 9.98318C187.407 9.98024 187.542 9.99341 187.673 10.0224C187.738 10.0455 187.775 10.1443 187.794 10.2902C187.812 10.4736 187.816 10.6579 187.807 10.8419C187.8 11.0544 187.787 11.2858 187.776 11.5085C187.766 11.7312 187.759 11.9422 187.766 12.1159C187.773 12.2896 187.797 12.488 187.826 12.6927C187.855 12.8974 187.888 13.1087 187.914 13.3075C187.94 13.4873 187.953 13.6686 187.954 13.8502C187.961 13.9754 187.932 14.1001 187.869 14.2094C187.401 14.3521 186.912 14.4224 186.422 14.4176C185.598 14.4768 184.516 14.5235 183.421 14.5498C182.327 14.576 181.221 14.5823 180.352 14.5603C179.797 14.5813 179.242 14.5286 178.702 14.4035C178.564 14.1914 178.415 13.2413 178.274 11.9332C178.133 10.6251 178.001 8.97309 177.896 7.33757C177.789 5.70716 177.711 4.09987 177.68 2.87765C177.648 1.65542 177.661 0.822176 177.738 0.725324C177.815 0.628471 178.432 0.567693 179.323 0.534755C180.214 0.501818 181.373 0.495544 182.538 0.507699C183.704 0.519855 184.866 0.550048 185.764 0.589652C186.307 0.591092 186.848 0.636472 187.383 0.725324Z" fill="white"/>
<path d="M134.621 13.2939C134.586 13.3595 134.537 13.4174 134.478 13.4641C134.417 13.5119 134.349 13.5514 134.277 13.5817C134.199 13.6148 134.118 13.6423 134.036 13.664C133.952 13.6872 133.864 13.7076 133.777 13.7268C133.329 13.826 132.983 13.8864 132.694 13.9228C132.406 13.9593 132.175 13.977 131.959 13.9883C131.742 13.9997 131.539 14.0064 131.305 14.0252C131.024 14.0486 130.744 14.0858 130.467 14.1369C130.391 14.1507 130.306 14.1663 130.223 14.1789C130.138 14.1923 130.052 14.2001 129.966 14.2024C129.882 14.2049 129.798 14.1966 129.716 14.1777C129.636 14.1591 129.561 14.1242 129.496 14.0754C129.451 14.0407 129.412 13.9986 129.381 13.9511C129.351 13.9054 129.328 13.8562 129.312 13.8048C129.295 13.7523 129.282 13.6987 129.272 13.6444C129.261 13.5895 129.253 13.5335 129.243 13.4778C129.228 13.3876 129.209 13.2884 129.184 13.1802C129.159 13.072 129.128 12.9551 129.09 12.8296C129.052 12.7041 129.007 12.5704 128.952 12.4289C128.898 12.2873 128.835 12.1375 128.761 11.9807H126.259C126.227 12.1185 126.197 12.2492 126.17 12.3728C126.142 12.4959 126.116 12.612 126.093 12.7194C126.07 12.8269 126.048 12.9265 126.029 13.0167C126.01 13.1069 125.993 13.1888 125.978 13.2613C125.953 13.3813 125.932 13.4825 125.912 13.5692C125.896 13.6433 125.876 13.7166 125.853 13.7887C125.835 13.8438 125.811 13.8965 125.78 13.9456C125.751 13.9891 125.714 14.0276 125.673 14.0597C125.612 14.1071 125.542 14.1418 125.467 14.1616C125.384 14.1826 125.298 14.1924 125.212 14.1907C125.105 14.1894 124.997 14.1822 124.891 14.1691C124.77 14.1558 124.637 14.1373 124.489 14.1173C124.012 14.0542 123.594 13.9997 123.231 13.9523C122.869 13.9048 122.56 13.8664 122.299 13.8346C122.039 13.8029 121.828 13.7825 121.66 13.7699C121.534 13.7581 121.407 13.7541 121.28 13.7582C121.195 13.7633 121.113 13.7699 121.035 13.7742C120.962 13.7792 120.889 13.7802 120.816 13.7774C120.752 13.7752 120.688 13.7645 120.627 13.7456C120.57 13.7275 120.518 13.6971 120.474 13.6566C120.402 13.5856 120.356 13.4931 120.345 13.3939C120.331 13.2868 120.335 13.1782 120.356 13.0723C120.376 12.9679 120.404 12.865 120.439 12.7645C120.471 12.6724 120.503 12.5944 120.523 12.543C120.69 12.1262 120.974 11.3043 121.308 10.2891C121.642 9.27392 122.025 8.07287 122.393 6.88633C122.762 5.69978 123.117 4.53834 123.393 3.59491C123.67 2.65148 123.871 1.93312 123.932 1.63433C123.939 1.60296 123.948 1.5559 123.965 1.49473C123.984 1.42531 124.008 1.3574 124.037 1.29162C124.073 1.2113 124.118 1.13526 124.172 1.06497C124.234 0.985917 124.308 0.916392 124.391 0.858722C124.468 0.805168 124.551 0.761786 124.639 0.729716C124.721 0.699368 124.806 0.676911 124.893 0.662664C124.972 0.650242 125.051 0.642516 125.131 0.639529C125.206 0.636392 125.275 0.636392 125.334 0.636392C125.699 0.636392 125.994 0.619923 126.263 0.59718C126.533 0.574438 126.778 0.549342 127.042 0.525423C127.305 0.501504 127.588 0.48229 127.933 0.472095C128.279 0.4619 128.687 0.463077 129.203 0.483467C129.258 0.485819 129.324 0.488564 129.397 0.495622C129.476 0.502841 129.555 0.514757 129.632 0.531305C129.72 0.549785 129.805 0.576036 129.887 0.609728C129.977 0.646653 130.062 0.694192 130.14 0.751282C130.203 0.797603 130.261 0.850167 130.313 0.908128C130.357 0.95707 130.398 1.00953 130.433 1.06497C130.461 1.10856 130.486 1.15373 130.508 1.20025C130.526 1.23947 130.539 1.27123 130.548 1.2924C130.917 2.20838 131.247 3.13809 131.561 4.07642C131.874 5.01476 132.173 5.9625 132.478 6.90985C132.782 7.8572 133.094 8.81044 133.435 9.75465C133.775 10.6989 134.146 11.6423 134.568 12.57C134.58 12.5955 134.598 12.6355 134.617 12.6877C134.64 12.7455 134.658 12.8051 134.671 12.8657C134.685 12.9355 134.691 13.007 134.686 13.0782C134.68 13.1537 134.658 13.227 134.621 13.2939ZM128.194 8.91121C128.207 8.89662 128.217 8.87918 128.223 8.86024C128.229 8.84203 128.231 8.82314 128.231 8.80416C128.231 8.78655 128.23 8.76896 128.226 8.75162C128.224 8.73554 128.22 8.72182 128.218 8.71241C128.167 8.51047 128.097 8.26383 128.021 7.99837C127.946 7.7329 127.861 7.4494 127.78 7.17218C127.7 6.89495 127.624 6.62557 127.562 6.38795C127.501 6.15032 127.453 5.94721 127.431 5.79977C127.429 5.78605 127.425 5.76331 127.421 5.73703C127.417 5.71076 127.411 5.68096 127.405 5.65273C127.4 5.62775 127.394 5.60313 127.385 5.57901C127.378 5.5598 127.37 5.54725 127.362 5.54725C127.354 5.54725 127.345 5.56215 127.338 5.58646C127.33 5.61598 127.324 5.64597 127.32 5.67626C127.314 5.71037 127.31 5.74723 127.306 5.77978C127.303 5.81232 127.3 5.84095 127.298 5.8582C127.281 6.02995 127.243 6.26678 127.192 6.53185C127.142 6.79692 127.079 7.09023 127.016 7.37412C126.953 7.65801 126.888 7.93367 126.832 8.16227C126.777 8.39087 126.73 8.57321 126.702 8.67202C126.699 8.68535 126.693 8.70457 126.689 8.72692C126.683 8.75145 126.68 8.77636 126.678 8.80142C126.676 8.82697 126.679 8.85265 126.685 8.87749C126.691 8.90119 126.706 8.92224 126.725 8.93748C126.739 8.94772 126.754 8.95483 126.771 8.95827C126.788 8.96193 126.806 8.96325 126.824 8.96219C126.843 8.96121 126.861 8.95912 126.88 8.95591L126.936 8.94611C126.989 8.93701 127.043 8.93138 127.097 8.92925C127.157 8.92651 127.225 8.92611 127.304 8.92925C127.384 8.93239 127.474 8.93435 127.577 8.93944C127.681 8.94454 127.799 8.95121 127.934 8.95866C127.958 8.95866 127.983 8.9614 128.007 8.96219C128.031 8.96293 128.055 8.96214 128.079 8.95983C128.101 8.95786 128.123 8.95298 128.143 8.94533C128.162 8.93779 128.18 8.92613 128.194 8.91121Z" fill="white"/>
<path d="M151.053 0.480386C151.14 0.548785 151.215 0.631755 151.273 0.725459C151.324 0.810009 151.365 0.900667 151.393 0.995234C151.418 1.07722 151.436 1.16101 151.447 1.2458C151.457 1.32108 151.461 1.38578 151.464 1.43205C151.526 2.45547 151.53 3.48046 151.507 4.50781C151.484 5.53515 151.432 6.56995 151.381 7.60552C151.331 8.6411 151.282 9.68374 151.263 10.7287C151.245 11.7737 151.258 12.8273 151.333 13.8829C151.333 13.9092 151.338 13.9523 151.339 14.0052C151.34 14.066 151.335 14.1267 151.326 14.1868C151.316 14.256 151.295 14.3233 151.265 14.3868C151.233 14.455 151.185 14.5154 151.126 14.5636C151.075 14.6042 151.017 14.6353 150.954 14.6554C150.893 14.6749 150.829 14.6872 150.765 14.6918C150.702 14.6965 150.64 14.6972 150.577 14.6938C150.517 14.6911 150.46 14.686 150.411 14.682C150.166 14.6624 149.897 14.6558 149.616 14.6573C149.334 14.6589 149.041 14.6699 148.748 14.686C148.455 14.702 148.162 14.7232 147.882 14.7456C147.602 14.7679 147.335 14.7922 147.093 14.8138C147.058 14.8169 147.013 14.8208 146.965 14.8228C146.911 14.8253 146.857 14.8241 146.804 14.8193C146.747 14.8142 146.69 14.8024 146.636 14.7844C146.579 14.7655 146.526 14.7368 146.48 14.6997C146.424 14.6544 146.38 14.5976 146.349 14.5334C146.321 14.473 146.302 14.409 146.292 14.3433C146.284 14.2847 146.28 14.2256 146.281 14.1664C146.281 14.1139 146.286 14.0703 146.288 14.0409C146.315 13.6959 146.317 13.0924 146.302 12.3819C146.287 11.6714 146.256 10.8573 146.217 10.0857C146.178 9.31397 146.132 8.58974 146.088 8.05528C146.084 7.75853 146.045 7.46324 145.969 7.17576H145.967L145.966 7.18008C145.965 7.18166 145.963 7.18337 145.962 7.18518C145.882 7.30281 145.792 7.43103 145.696 7.57337C145.601 7.71571 145.499 7.87059 145.391 8.03724C145.284 8.20389 145.172 8.38309 145.056 8.57366C144.94 8.76423 144.821 8.96577 144.699 9.1783C144.469 9.57865 144.29 9.91626 144.143 10.1978C143.997 10.4793 143.882 10.7076 143.782 10.8867C143.708 11.0314 143.616 11.1667 143.508 11.2895C143.433 11.3744 143.33 11.4318 143.217 11.4522C143.07 11.4727 142.919 11.447 142.788 11.3789C142.549 11.2555 142.333 11.0915 142.153 10.8946C141.825 10.55 141.529 10.1779 141.268 9.78255C140.928 9.28378 140.541 8.64541 140.098 7.83099C140.098 8.38884 140.102 8.90852 140.111 9.39004C140.121 9.87156 140.132 10.3174 140.146 10.7276C140.162 11.1369 140.182 11.5103 140.207 11.8478C140.231 12.1853 140.26 12.4891 140.294 12.7591C140.302 12.8234 140.314 12.9097 140.32 13.0085C140.328 13.117 140.326 13.226 140.316 13.3343C140.304 13.4529 140.276 13.5692 140.231 13.6798C140.183 13.7966 140.109 13.9018 140.015 13.988C139.991 14.0105 139.964 14.0302 139.935 14.0464C139.874 14.0791 139.809 14.1054 139.742 14.1248C139.622 14.1612 139.499 14.1897 139.374 14.2103C139.213 14.2386 139.015 14.2652 138.764 14.2887C138.552 14.3084 138.386 14.3178 138.237 14.3217C138.089 14.3256 137.959 14.3217 137.82 14.3197C137.68 14.3178 137.532 14.3111 137.346 14.3087C137.16 14.3064 136.938 14.3087 136.65 14.315C136.464 14.3201 136.316 14.3264 136.196 14.3311C136.076 14.3358 135.984 14.3393 135.909 14.3385C135.848 14.3394 135.787 14.3335 135.727 14.3209C135.678 14.309 135.632 14.289 135.59 14.2617C135.459 14.176 135.358 14.0526 135.303 13.9088C135.242 13.7583 135.207 13.5995 135.197 13.4382C135.184 13.2816 135.184 13.1243 135.197 12.9677C135.207 12.825 135.223 12.7022 135.234 12.6207C135.325 11.7659 135.373 10.9071 135.376 10.0476C135.391 9.04851 135.376 7.95215 135.346 6.89697C135.317 5.84179 135.269 4.83209 135.218 3.99531C135.166 3.15854 135.11 2.50018 135.061 2.14609C135.054 2.09708 135.043 2.02454 135.036 1.93906C135.028 1.84315 135.028 1.74676 135.036 1.65085C135.045 1.54328 135.07 1.43756 135.111 1.33716C135.154 1.23134 135.221 1.13642 135.307 1.05954C135.362 1.01149 135.424 0.971833 135.492 0.941907C135.565 0.909579 135.642 0.884998 135.721 0.868581C135.815 0.848684 135.911 0.833503 136.008 0.823096C136.114 0.810548 136.233 0.799569 136.366 0.787413C136.486 0.776434 136.604 0.765455 136.718 0.758397C136.833 0.751338 136.944 0.747417 137.055 0.750554C137.164 0.753057 137.273 0.764072 137.38 0.783492C137.491 0.8036 137.598 0.834742 137.702 0.876423C137.813 0.921337 137.919 0.97829 138.017 1.04621C138.103 1.10605 138.184 1.17337 138.258 1.24736C138.321 1.31102 138.381 1.37846 138.436 1.4493C138.486 1.51322 138.528 1.57243 138.562 1.62105C138.763 1.90377 138.976 2.17864 139.198 2.44842C139.421 2.71819 139.652 2.98444 139.886 3.24833C140.119 3.51223 140.357 3.77494 140.592 4.03923C140.828 4.30352 141.062 4.56937 141.288 4.83954C141.555 5.15754 141.77 5.4085 141.954 5.60612C142.094 5.76265 142.244 5.91087 142.402 6.05C142.492 6.13174 142.594 6.19911 142.705 6.24959C142.778 6.28035 142.858 6.29198 142.936 6.28331C142.981 6.27904 143.023 6.26567 143.062 6.2441C143.142 6.19707 143.214 6.13639 143.272 6.0649C143.387 5.92894 143.488 5.78222 143.573 5.62691C143.721 5.36294 143.854 5.09103 143.97 4.81248C144.165 4.35802 144.335 3.93101 144.482 3.54712C144.628 3.16324 144.75 2.82171 144.848 2.53743C144.946 2.25314 145.019 2.02532 145.069 1.86887C145.118 1.71241 145.143 1.62693 145.143 1.62693C145.157 1.5791 145.178 1.50577 145.212 1.41754C145.25 1.31525 145.296 1.21601 145.35 1.12071C145.414 1.00671 145.492 0.900387 145.581 0.803882C145.681 0.695758 145.799 0.604127 145.929 0.532538C145.991 0.497616 146.058 0.469978 146.127 0.450193C146.21 0.428138 146.294 0.413439 146.38 0.406276C146.483 0.395689 146.61 0.388239 146.775 0.380005C146.94 0.37177 147.143 0.363144 147.399 0.350204C147.677 0.33648 147.902 0.32354 148.096 0.312169C148.291 0.300797 148.452 0.290602 148.605 0.282368C148.758 0.274133 148.9 0.267467 149.058 0.263154C149.216 0.258841 149.384 0.258057 149.589 0.258057C149.843 0.258057 150.049 0.263546 150.219 0.272565C150.356 0.278046 150.492 0.291138 150.628 0.311777C150.715 0.324882 150.801 0.347911 150.883 0.380397C150.944 0.405778 151.001 0.43944 151.053 0.480386Z" fill="white"/>
<path d="M201.879 5.03826C201.895 5.16479 201.908 5.28843 201.917 5.40921C201.926 5.52998 201.932 5.64761 201.935 5.76211C201.937 5.87713 201.936 5.98928 201.932 6.09855C201.927 6.20782 201.919 6.31421 201.908 6.41773C201.896 6.52229 201.881 6.62372 201.862 6.72201C201.844 6.8203 201.821 6.91741 201.794 7.01335C201.767 7.10851 201.737 7.20144 201.703 7.29215C201.669 7.38286 201.632 7.47161 201.59 7.55839C201.548 7.64492 201.502 7.72988 201.452 7.81327C201.402 7.89666 201.348 7.97848 201.291 8.05873C201.233 8.13899 201.17 8.21741 201.104 8.294C201.038 8.3706 200.967 8.44588 200.893 8.51986C200.818 8.59358 200.739 8.66651 200.656 8.73866C200.573 8.81081 200.485 8.88218 200.392 8.95276C200.3 9.02334 200.203 9.093 200.102 9.16175C200.001 9.23051 199.895 9.2986 199.785 9.36605C199.982 9.62746 200.176 9.88534 200.367 10.1397C200.559 10.394 200.748 10.6471 200.935 10.8988C201.123 11.15 201.309 11.3996 201.493 11.6474C201.677 11.8952 201.86 12.1425 202.043 12.3893C202.104 12.4716 202.173 12.5661 202.24 12.6637C202.308 12.7626 202.368 12.8657 202.422 12.9723C202.471 13.0674 202.505 13.1692 202.523 13.2743C202.539 13.362 202.523 13.4525 202.478 13.5299C202.451 13.5722 202.413 13.6064 202.367 13.6287C202.313 13.654 202.255 13.671 202.195 13.6793C202.126 13.6911 202.044 13.6989 201.948 13.7076C201.851 13.7162 201.74 13.7256 201.611 13.7401C201.608 13.7401 201.621 13.7401 201.6 13.7452C201.579 13.7503 201.522 13.7648 201.381 13.7954C201.24 13.826 201.014 13.8738 200.651 13.9471C200.289 14.0205 199.791 14.1212 199.105 14.2569C198.979 14.282 198.868 14.3036 198.769 14.32C198.681 14.3355 198.592 14.3455 198.502 14.3502C198.43 14.3542 198.357 14.3487 198.286 14.3342C198.22 14.3199 198.157 14.2942 198.101 14.2585C198.038 14.2195 197.984 14.1695 197.94 14.111C197.899 14.0551 197.865 13.994 197.84 13.9295C197.815 13.8646 197.794 13.7982 197.777 13.7307C197.76 13.6632 197.745 13.5958 197.728 13.5311C197.636 13.1978 197.492 12.8804 197.301 12.59C197.119 12.3115 196.909 12.0511 196.675 11.8125C196.47 11.603 196.253 11.4057 196.024 11.2215C195.823 11.0584 195.646 10.9306 195.524 10.842C195.47 10.8028 195.408 10.7592 195.34 10.713C195.271 10.6667 195.195 10.6177 195.112 10.5671C195.028 10.5165 194.938 10.4636 194.84 10.4103C194.743 10.3569 194.639 10.3028 194.526 10.2491C194.489 10.5565 194.468 10.8655 194.464 11.1749C194.46 11.4358 194.47 11.6968 194.494 11.9568C194.515 12.174 194.547 12.3901 194.59 12.6041C194.63 12.8002 194.676 12.9716 194.723 13.1257C194.743 13.19 194.77 13.27 194.794 13.3586C194.82 13.4517 194.838 13.5466 194.85 13.6425C194.862 13.739 194.858 13.8368 194.839 13.9322C194.82 14.0258 194.776 14.1126 194.71 14.1832C194.676 14.2195 194.635 14.2495 194.59 14.2718C194.537 14.2971 194.481 14.3154 194.424 14.3263C194.344 14.3419 194.264 14.3527 194.183 14.3589C194.088 14.3671 193.976 14.3738 193.843 14.3808C193.465 14.4 193.183 14.4075 192.953 14.4075C192.724 14.4075 192.547 14.4004 192.38 14.3914C192.213 14.3824 192.056 14.371 191.864 14.3628C191.672 14.3545 191.447 14.3494 191.144 14.3522C191.048 14.3522 190.962 14.3545 190.883 14.3522C190.811 14.3524 190.739 14.3489 190.667 14.3416C190.605 14.3353 190.544 14.3222 190.485 14.3024C190.427 14.282 190.373 14.2534 190.324 14.2177C190.236 14.1543 190.164 14.0727 190.113 13.9789C190.064 13.89 190.029 13.7948 190.007 13.6962C189.988 13.6079 189.976 13.5182 189.971 13.428C189.967 13.3476 189.968 13.279 189.968 13.2319C189.97 12.9511 189.956 12.6703 189.928 12.3908C189.902 12.1101 189.865 11.8293 189.828 11.5486C189.791 11.2678 189.754 10.9874 189.726 10.7079C189.698 10.4283 189.679 10.1495 189.679 9.87188C189.679 9.75659 189.671 9.58681 189.655 9.35468C189.638 9.12254 189.614 8.82924 189.581 8.46693C189.548 8.10461 189.51 7.67407 189.463 7.16785C189.417 6.66162 189.363 6.08208 189.302 5.41979C189.286 5.23288 189.269 5.04663 189.252 4.86103C189.235 4.67543 189.218 4.49022 189.202 4.3054C189.185 4.12084 189.168 3.93668 189.152 3.75291C189.135 3.56914 189.119 3.38615 189.102 3.20395C189.079 2.99633 189.043 2.79015 188.996 2.58636C188.95 2.37305 188.897 2.14288 188.858 1.92957C188.818 1.74058 188.799 1.548 188.802 1.35512C188.797 1.29058 188.807 1.22581 188.832 1.16587C188.857 1.10594 188.896 1.05247 188.946 1.00967C189.046 0.946357 189.152 0.894761 189.264 0.855957C189.384 0.813756 189.507 0.778664 189.632 0.75087C189.759 0.721462 189.89 0.696366 190.018 0.672447C190.147 0.648528 190.273 0.623825 190.393 0.596769C190.512 0.569713 190.632 0.543833 190.752 0.518346C190.872 0.492858 190.993 0.471292 191.113 0.450117C191.234 0.428943 191.355 0.410906 191.475 0.390908C191.596 0.37091 191.716 0.35601 191.839 0.340717C191.962 0.325425 192.083 0.311701 192.206 0.299937C192.328 0.288174 192.451 0.27445 192.576 0.264255C192.701 0.25406 192.825 0.244649 192.95 0.236414C193.075 0.22818 193.201 0.221514 193.327 0.215632C193.453 0.209751 193.58 0.205045 193.708 0.201124C193.836 0.197203 193.965 0.193282 194.095 0.190537C194.224 0.187792 194.356 0.185439 194.487 0.182302C194.618 0.179165 194.751 0.182302 194.885 0.182302C195.09 0.182302 195.294 0.188576 195.497 0.201124C195.701 0.213672 195.903 0.232624 196.105 0.257981C196.307 0.284122 196.508 0.315752 196.708 0.352873C196.908 0.389993 197.107 0.434171 197.305 0.485408C197.503 0.53586 197.696 0.592717 197.885 0.655978C198.073 0.71924 198.257 0.788775 198.437 0.864584C198.616 0.940393 198.79 1.02261 198.959 1.11122C199.128 1.19984 199.293 1.29474 199.455 1.3959C199.615 1.49707 199.769 1.60451 199.917 1.71822C200.064 1.83193 200.205 1.95205 200.34 2.07857C200.474 2.20484 200.602 2.3375 200.725 2.47657C200.847 2.61564 200.962 2.76099 201.07 2.91261C201.179 3.06431 201.277 3.22266 201.365 3.38667C201.454 3.55242 201.532 3.72346 201.598 3.89878C201.667 4.07824 201.724 4.26156 201.769 4.44774C201.817 4.64242 201.854 4.83957 201.879 5.03826ZM196.827 4.59988C196.804 4.55792 196.767 4.49283 196.714 4.4148C196.652 4.32179 196.582 4.23358 196.505 4.15091C196.408 4.04611 196.3 3.95125 196.184 3.8678C196.044 3.76872 195.893 3.68692 195.733 3.62429C195.537 3.54682 195.33 3.49959 195.118 3.48431C194.945 3.47201 194.771 3.48057 194.599 3.5098C194.471 3.53143 194.346 3.5641 194.224 3.60743C194.162 3.62925 194.102 3.65465 194.043 3.6835C194.034 3.798 194.026 3.91564 194.02 4.03641C194.015 4.15718 194.011 4.28213 194.009 4.41127C194.007 4.53962 194.007 4.67124 194.009 4.80613C194.011 4.94102 194.016 5.07931 194.024 5.22099C194.034 5.38908 194.046 5.55337 194.062 5.71388C194.077 5.87439 194.096 6.03123 194.117 6.18442C194.138 6.33656 194.161 6.48439 194.186 6.6279C194.211 6.77142 194.237 6.91023 194.266 7.04433C194.336 7.05845 194.452 7.07962 194.598 7.0957C194.768 7.11471 194.94 7.12139 195.112 7.11569C195.317 7.10935 195.522 7.08068 195.721 7.03021C195.94 6.97495 196.148 6.88558 196.337 6.76553C196.368 6.74554 196.408 6.72005 196.453 6.68711C196.504 6.65057 196.553 6.6113 196.599 6.56948C196.656 6.51865 196.708 6.46373 196.756 6.40518C196.933 6.18792 197.039 5.92395 197.061 5.64722C197.074 5.4824 197.064 5.31659 197.029 5.15472C197.003 5.02743 196.964 4.90275 196.915 4.78221C196.889 4.71989 196.86 4.65901 196.827 4.59988Z" fill="white"/>
<path d="M85.6068 3.21648C85.5264 3.11022 85.4207 2.9718 85.2852 2.81496C85.1307 2.6347 84.9657 2.46331 84.7909 2.30168C84.5755 2.10282 84.3448 1.92035 84.1008 1.75585C83.8148 1.56339 83.5115 1.3967 83.1945 1.25787C83.043 1.1916 82.8951 1.13435 82.7524 1.08494C82.6098 1.03554 82.4711 0.99358 82.3409 0.958289C82.2107 0.922999 82.0857 0.893982 81.9699 0.870063C81.8542 0.846144 81.7473 0.827715 81.6484 0.812814C81.6484 0.812814 81.6006 0.802619 81.5166 0.788503C81.4326 0.774387 81.3116 0.755565 81.1657 0.738704C81.0198 0.721843 80.8502 0.706943 80.6665 0.699493C80.4717 0.691024 80.2764 0.692987 80.0818 0.705375C79.7676 0.727798 79.4562 0.778865 79.1518 0.857908C78.8373 0.939177 78.5297 1.04405 78.2318 1.1716C77.9344 1.29811 77.6467 1.44527 77.3709 1.61195C77.1054 1.7716 76.8527 1.95093 76.6153 2.14836C76.1548 2.53427 75.7655 2.99435 75.4643 3.50861C75.1944 3.97317 74.9874 4.46995 74.8486 4.9865C74.7249 5.44538 74.6403 5.91346 74.5958 6.38596C74.5524 6.81728 74.5407 7.20313 74.5319 7.5078C74.5234 7.79404 74.5106 8.22969 74.5387 8.74963C74.568 9.33963 74.6539 9.92565 74.7951 10.5C74.9547 11.1588 75.2193 11.789 75.5792 12.3677C75.9807 13.0063 76.5244 13.5485 77.17 13.9542C77.5034 14.1627 77.8593 14.3347 78.2314 14.4671C78.5538 14.5818 78.8858 14.669 79.2237 14.7278C79.4961 14.7753 79.7713 14.8059 80.0476 14.8196C80.2831 14.8313 80.4744 14.829 80.6047 14.8266C81.1723 14.815 81.7364 14.7369 82.285 14.5941C82.844 14.4499 83.3836 14.2418 83.8926 13.9742C84.3995 13.7089 84.868 13.3793 85.286 12.9939C85.6993 12.6139 86.048 12.1723 86.3189 11.6854C86.4307 11.483 86.5248 11.2719 86.6003 11.0541C86.6718 10.8448 86.7268 10.6305 86.7646 10.413C86.8048 10.1903 86.8322 9.955 86.8547 9.6962C86.8772 9.4374 86.8949 9.15508 86.9133 8.83786C86.9318 8.52063 86.9564 8.13205 86.9564 7.70072C86.9588 7.2322 86.9267 6.76411 86.8603 6.30008C86.7851 5.77531 86.6517 5.26005 86.4624 4.76338C86.252 4.21155 85.9641 3.69094 85.6068 3.21648ZM80.7288 10.8957C80.4727 10.8977 80.2256 10.8032 80.0392 10.6318C79.7968 10.4206 79.5943 10.1695 79.4411 9.8899C79.2572 9.56684 79.1104 9.22493 79.0035 8.8704C78.8922 8.51165 78.822 8.14199 78.7941 7.76817C78.7739 7.43684 78.7861 7.10439 78.8306 6.77533C78.8731 6.4408 78.9495 6.11124 79.0589 5.79151C79.1503 5.51185 79.288 5.24866 79.4665 5.01237C79.6044 4.81988 79.8087 4.68213 80.042 4.62418C80.3014 4.58784 80.5654 4.64575 80.7839 4.78691C81.0698 4.95984 81.3212 5.18198 81.5258 5.44253C81.7693 5.74367 81.9694 6.07586 82.1206 6.42987C82.2815 6.79822 82.3828 7.18872 82.4209 7.5874C82.4496 7.96733 82.4226 8.34933 82.3405 8.72179C82.2635 9.0872 82.1394 9.44162 81.9711 9.77658C81.8293 10.0689 81.6371 10.3352 81.4028 10.564C81.2252 10.7485 80.9865 10.8659 80.7288 10.8957Z" fill="white"/>
<path d="M98.544 0.966465C98.596 1.03259 98.6252 1.11299 98.6276 1.19624C98.6275 1.30072 98.6149 1.40482 98.5899 1.50641C98.5641 1.63267 98.5288 1.78599 98.495 1.98087C98.4613 2.17575 98.4275 2.4122 98.4058 2.70315C98.3953 2.84666 98.3961 3.01684 98.3998 3.19133C98.4034 3.36582 98.4094 3.54972 98.4082 3.72029C98.4104 3.87318 98.3995 4.02598 98.3756 4.17711C98.3674 4.27982 98.3215 4.37618 98.2462 4.44845C97.9989 4.51429 97.7422 4.54077 97.4862 4.52688C97.0819 4.53668 96.5643 4.53472 96.0442 4.53433C95.5241 4.53394 95.0017 4.53433 94.5877 4.5504C94.3155 4.53891 94.0434 4.57435 93.7839 4.6551C93.6893 4.73227 93.6207 4.83542 93.587 4.95115C93.5393 5.0925 93.5109 5.23937 93.5026 5.38796C93.4919 5.53094 93.4996 5.67464 93.5255 5.81576C93.5366 5.91577 93.5806 6.00959 93.6509 6.08319C93.8295 6.14095 94.0188 6.16048 94.2059 6.14043C94.492 6.13769 94.8546 6.11887 95.2171 6.09848C95.5796 6.07809 95.9425 6.05652 96.2303 6.04907C96.4185 6.02918 96.6088 6.04085 96.7929 6.08358C96.854 6.11926 96.8862 6.30434 96.8954 6.56627C96.9021 6.88103 96.8902 7.1959 96.8597 7.50931C96.8321 7.83366 96.7858 8.15623 96.721 8.47548C96.699 8.67196 96.6285 8.86032 96.5156 9.02445C96.3359 9.105 96.1382 9.14006 95.9409 9.1264C95.6564 9.13581 95.3015 9.1264 94.9454 9.11306C94.5893 9.09973 94.2316 9.08326 93.9406 9.07934C93.7388 9.06343 93.5357 9.07664 93.3378 9.11855C93.2992 9.12998 93.2635 9.14937 93.2333 9.17541C93.2078 9.21302 93.1959 9.25788 93.1995 9.30285C93.1963 9.37108 93.1995 9.47146 93.2023 9.62556C93.2051 9.77966 93.21 9.9867 93.2088 10.2682C93.2088 10.6725 93.2031 10.9627 93.1983 11.1897C93.1935 11.4167 93.1879 11.5818 93.1834 11.732C93.179 11.8822 93.1754 12.0226 93.1742 12.2006C93.173 12.3786 93.1742 12.5958 93.181 12.9033C93.181 12.9954 93.185 13.0966 93.1879 13.206C93.1907 13.3154 93.1939 13.433 93.1979 13.5589C93.2019 13.6847 93.2068 13.8173 93.2124 13.9569C93.218 14.0965 93.224 14.2439 93.2317 14.3972L92.8892 14.4145L92.5464 14.4317L92.2036 14.449L91.8624 14.4662L90.946 14.5125L90.0297 14.5588L89.1134 14.605L88.197 14.6513C88.2006 14.5337 88.205 14.3976 88.2095 14.2494C88.2139 14.1012 88.2183 13.9388 88.2227 13.7636C88.2272 13.5883 88.2316 13.4012 88.236 13.2032C88.2404 13.0052 88.2444 12.7954 88.2481 12.5758C88.2534 12.2499 88.2578 11.9113 88.2613 11.5603C88.2648 11.2092 88.2667 10.8446 88.2669 10.4666C88.2669 10.0886 88.2657 9.69653 88.2633 9.2903C88.2609 8.88407 88.2561 8.46281 88.2489 8.02651C88.2288 6.73802 88.1962 5.69028 88.1745 4.8339C88.1528 3.97752 88.1419 3.31445 88.1649 2.79137C88.1651 2.3863 88.2306 1.98377 88.359 1.59856C88.4565 1.3331 88.6464 1.10942 88.8955 0.966465C88.9574 0.932433 89.024 0.907213 89.0933 0.891571C89.1948 0.867363 89.2978 0.848903 89.4015 0.836283C89.5245 0.820206 89.6692 0.805305 89.838 0.790405C90.0068 0.775505 90.1997 0.760212 90.4203 0.742567C91.1044 0.688847 91.6437 0.668457 92.1067 0.668457C92.5697 0.668457 92.9556 0.688455 93.3325 0.71159C93.7095 0.734725 94.0781 0.762173 94.5057 0.778249C94.9333 0.794326 95.4196 0.799032 96.0329 0.778249C96.4075 0.764525 96.7327 0.74492 97.0148 0.728843C97.2969 0.712766 97.5373 0.701003 97.7382 0.702963C97.9062 0.69922 98.0739 0.718894 98.2362 0.761388C98.359 0.795124 98.4671 0.867149 98.544 0.966465Z" fill="white"/>
<path d="M26.8275 3.21644C26.7556 3.11017 26.6607 2.97176 26.5386 2.81491C26.3987 2.63474 26.2475 2.46331 26.0856 2.30163C25.6503 1.86737 25.1379 1.51371 24.5732 1.25782C24.4274 1.19155 24.2839 1.1343 24.1448 1.0849C24.0058 1.03549 23.8715 0.993533 23.7429 0.958243C23.6143 0.922953 23.4917 0.893936 23.3792 0.870017C23.2667 0.846098 23.1602 0.827668 23.0645 0.811592C23.0645 0.811592 23.0175 0.801397 22.9343 0.78728C22.8511 0.773164 22.7333 0.754343 22.5874 0.737482C22.4415 0.720621 22.2731 0.705328 22.0887 0.69827C21.8935 0.689804 21.698 0.691767 21.5031 0.704152C21.185 0.726926 20.8696 0.777982 20.561 0.856685C20.2386 0.938481 19.9228 1.04333 19.6162 1.17038C19.3075 1.29765 19.0079 1.44502 18.7195 1.61151C18.4411 1.77174 18.1748 1.95113 17.9225 2.14831C17.4313 2.53383 17.0059 2.99296 16.6622 3.50856C16.3566 3.97013 16.1102 4.46645 15.9283 4.98645C15.7685 5.44266 15.6464 5.91065 15.5634 6.38591C15.4858 6.81724 15.4428 7.20269 15.4098 7.50815C15.3785 7.79439 15.3294 8.23003 15.3178 8.74998C15.2997 9.33573 15.3387 9.92184 15.4343 10.5004C15.539 11.1528 15.7534 11.7838 16.0689 12.368C16.4182 13.005 16.9211 13.5493 17.5343 13.9541C17.8526 14.1635 18.1951 14.3357 18.5547 14.467C18.8698 14.5822 19.195 14.6695 19.5261 14.7278C19.7961 14.7754 20.0688 14.806 20.3428 14.8195C20.5775 14.8313 20.7688 14.8289 20.899 14.8266C21.4727 14.8142 22.0429 14.7362 22.5979 14.5941C23.1723 14.4484 23.7283 14.2405 24.2553 13.9741C24.7852 13.7076 25.2794 13.3783 25.7267 12.9938C26.1698 12.6147 26.553 12.1737 26.8641 11.6854C26.9923 11.4839 27.1038 11.2728 27.1977 11.054C27.2857 10.8458 27.3578 10.6315 27.4135 10.4129C27.4714 10.1902 27.5176 9.95495 27.5606 9.69615C27.6036 9.43736 27.6434 9.15503 27.688 8.83781C27.7326 8.52059 27.7877 8.132 27.8222 7.70067C27.862 7.23477 27.8673 6.76668 27.8379 6.30004C27.8053 5.77941 27.7131 5.26397 27.563 4.76334C27.3974 4.21512 27.1496 3.69383 26.8275 3.21644ZM21.3363 10.8956C21.2124 10.8978 21.0893 10.8755 20.9744 10.8302C20.8594 10.7848 20.7551 10.7173 20.6675 10.6317C20.4415 10.4198 20.2586 10.1681 20.1286 9.88986C19.9697 9.56465 19.8502 9.22252 19.7725 8.87036C19.6898 8.50856 19.6493 8.13879 19.6519 7.76812C19.6585 7.43434 19.6974 7.10191 19.7681 6.77528C19.8381 6.43851 19.9411 6.10907 20.0755 5.79146C20.1904 5.50985 20.3489 5.24709 20.5454 5.01233C20.6975 4.82062 20.911 4.68399 21.1518 4.62413C21.4071 4.58635 21.6675 4.64451 21.8805 4.78686C22.1512 4.95979 22.3845 5.18279 22.5673 5.44326C22.7875 5.74618 22.9612 6.07879 23.083 6.43061C23.2152 6.80313 23.2852 7.19395 23.2904 7.58814C23.2885 7.97218 23.2313 8.35405 23.1204 8.72253C23.0129 9.09058 22.8606 9.44472 22.6666 9.77732C22.5004 10.0709 22.2873 10.3367 22.0352 10.5647C21.8461 10.7472 21.6003 10.8636 21.3363 10.8956Z" fill="white"/>
<path d="M29.5543 1.70482C29.554 1.68178 29.5549 1.65874 29.5571 1.6358C29.5641 1.56076 29.5838 1.48736 29.6154 1.41857C29.6363 1.37301 29.6622 1.32977 29.6925 1.28957C29.7437 1.22198 29.8059 1.16304 29.8766 1.11507C29.9378 1.0737 30.0038 1.03948 30.0731 1.01312C30.1264 0.993181 30.1813 0.977445 30.2371 0.96607C30.2659 0.959318 30.295 0.954082 30.3243 0.950386C30.4851 0.947641 30.6394 0.944504 30.7845 0.940583C30.9296 0.936662 31.067 0.932348 31.1953 0.926859C31.3235 0.921369 31.4424 0.917056 31.5517 0.912351C31.6611 0.907645 31.7607 0.902548 31.8496 0.897842C31.9384 0.893137 32.0332 0.89 32.1442 0.888431C32.2551 0.886863 32.3813 0.887647 32.5244 0.887647C32.6674 0.887647 32.8334 0.887647 33.0231 0.891568L33.6734 0.899411C33.7562 0.899411 33.8342 0.901763 33.9073 0.905292C33.9759 0.908282 34.0442 0.915485 34.1119 0.926859C34.1717 0.936673 34.23 0.953663 34.2855 0.977442C34.3382 1.00029 34.3862 1.03216 34.4274 1.07155C34.4811 1.12403 34.5217 1.18791 34.5459 1.2582C34.5686 1.32479 34.5811 1.3943 34.5829 1.46445C34.5848 1.52736 34.5813 1.59032 34.5725 1.65267C34.5648 1.70835 34.5548 1.75462 34.5483 1.78559C34.5186 1.92911 34.3948 2.52355 34.2481 3.34504C34.1014 4.16652 33.9306 5.22014 33.8084 6.27493C33.6795 7.25355 33.6291 8.2405 33.6577 9.22678C33.7039 10.062 33.8711 10.6682 34.2316 10.8129C34.2865 10.8343 34.3447 10.8462 34.4037 10.8482C34.459 10.8503 34.5144 10.8463 34.5688 10.8364C34.615 10.8282 34.6605 10.8169 34.7051 10.8027C34.7433 10.7905 34.773 10.7788 34.7907 10.7721C35.2328 10.5988 35.5696 10.0663 35.8356 9.32873C36.1199 8.46609 36.3306 7.58199 36.4654 6.68547C36.6314 5.71303 36.7669 4.6998 36.9103 3.80224C37.0058 3.05984 37.1705 2.32748 37.4023 1.61424C37.4163 1.57816 37.4296 1.52797 37.4469 1.47229C37.4645 1.41242 37.4868 1.35395 37.5136 1.29741C37.5406 1.23924 37.579 1.18677 37.6265 1.14291C37.6774 1.09758 37.7417 1.06916 37.8102 1.06175C37.9782 1.04214 38.1526 1.02959 38.3299 1.02254C38.5071 1.01548 38.6876 1.01273 38.8672 1.01273C39.0469 1.01273 39.2289 1.01508 39.4034 1.01783C39.5778 1.02057 39.7526 1.02293 39.9186 1.02293C40.013 1.02293 40.1023 1.02293 40.1955 1.01861L40.4973 1.00528C40.6087 1.00175 40.7337 0.998224 40.8828 0.995871C41.0319 0.993519 41.2043 0.991558 41.4097 0.991558C41.5419 0.991558 41.6613 0.991558 41.7686 0.996263C41.8647 0.998888 41.9605 1.00727 42.0555 1.02136C42.131 1.03225 42.2046 1.05323 42.2742 1.08371C42.3339 1.10951 42.3867 1.1484 42.4286 1.19737C42.4704 1.24633 42.5001 1.30405 42.5153 1.36603C42.5296 1.42402 42.5353 1.4837 42.5322 1.54326C42.5297 1.59602 42.5227 1.64848 42.5113 1.70011C42.5012 1.74638 42.4904 1.78442 42.4831 1.80951C42.2895 2.70648 42.1506 3.61386 42.0672 4.52687C41.9249 5.70048 41.7525 7.06896 41.472 8.41392C41.2327 9.71404 40.8129 10.9763 40.224 12.1657C39.6457 13.246 38.8805 14.0753 37.8528 14.427C37.7632 14.4576 37.6671 14.4862 37.5667 14.5133C37.4662 14.5403 37.3609 14.5658 37.2528 14.5917C37.1447 14.6176 37.0345 14.6391 36.9236 14.6615C36.8127 14.6839 36.7018 14.7054 36.592 14.7266C36.1274 14.8168 35.6886 14.8795 35.2822 14.9226C34.8759 14.9658 34.5017 14.9885 34.1669 15.0011C33.8322 15.0136 33.5368 15.0124 33.2872 15.0085C33.0376 15.0046 32.8342 14.9975 32.6843 14.9948C32.5344 14.9921 32.3809 14.9877 32.2286 14.9795C32.0762 14.9713 31.9231 14.9591 31.7672 14.9403C31.6112 14.9215 31.4529 14.8976 31.2905 14.8654C31.1281 14.8332 30.9618 14.7921 30.7897 14.7411C30.7897 14.7411 30.7399 14.7262 30.6539 14.6968C30.5679 14.6674 30.4461 14.6231 30.3022 14.5646C30.1583 14.5062 29.9932 14.4333 29.8199 14.3462C29.6379 14.2554 29.4616 14.1542 29.2918 14.0431C29.0137 13.8596 28.7939 13.4083 28.6452 12.7295C28.4777 11.8506 28.4042 10.957 28.4261 10.0632C28.4429 8.80508 28.5368 7.5491 28.7075 6.30198C28.8907 4.89233 29.1693 3.34817 29.5543 1.70482Z" fill="white"/>
<path d="M42.6064 10.1498C42.8001 9.98281 43.0104 9.83504 43.2341 9.70867C43.5315 9.53769 43.8463 9.39734 44.1734 9.28989C44.5518 9.16444 44.9456 9.089 45.3445 9.0656C45.7917 9.04006 46.2401 9.08831 46.6708 9.20833C46.6455 9.29395 46.6249 9.38087 46.6093 9.4687C46.578 9.63872 46.5626 9.81118 46.5635 9.98394C46.563 10.1941 46.5971 10.403 46.6644 10.6027C46.7388 10.8217 46.8696 11.0184 47.0442 11.174C47.0707 11.1975 47.1089 11.2309 47.1579 11.2681C47.2155 11.3119 47.2766 11.3512 47.3404 11.3857C47.42 11.429 47.5041 11.4638 47.5912 11.4897C47.6947 11.5202 47.8018 11.5377 47.9099 11.5418C47.9572 11.5442 48.0045 11.5442 48.0518 11.5418C48.1366 11.5368 48.2209 11.5251 48.3038 11.5069C48.4098 11.4839 48.5128 11.4488 48.6104 11.4022C48.7232 11.3485 48.8263 11.2774 48.9159 11.1917C49.0159 11.0959 49.0952 10.9817 49.1494 10.8556C49.1983 10.7403 49.2271 10.6179 49.2346 10.4933C49.2418 10.3768 49.2334 10.2599 49.2097 10.1455C49.1892 10.0446 49.1567 9.94644 49.1128 9.85297C49.0796 9.78473 49.0392 9.72008 48.9922 9.66005C48.9514 9.60728 48.9062 9.55785 48.8572 9.51222C48.8156 9.47368 48.7719 9.43742 48.7262 9.4036C48.686 9.37341 48.649 9.34871 48.6201 9.32871C48.4223 9.19115 48.211 9.07295 47.9895 8.97581C47.7867 8.88803 47.5775 8.81503 47.3637 8.7574C47.1559 8.70015 46.9489 8.65545 46.7432 8.61349C46.5374 8.57153 46.3324 8.53193 46.1291 8.48527C45.8562 8.42253 45.5905 8.36175 45.3365 8.29548C45.0927 8.23364 44.8523 8.15957 44.6163 8.07355C44.401 7.99571 44.1943 7.89678 43.9994 7.77828C43.8174 7.6673 43.6546 7.52886 43.5171 7.36813C43.341 7.1564 43.2164 6.90853 43.1525 6.64311C43.0917 6.38621 43.0699 6.12197 43.0878 5.85888C43.1044 5.61084 43.1418 5.36455 43.1996 5.12248C43.2518 4.89506 43.3121 4.69116 43.3603 4.53078C43.4683 4.17298 43.6113 3.82618 43.7876 3.4952C44.2029 2.71293 44.78 2.02319 45.4824 1.46953C45.884 1.15356 46.3221 0.884445 46.7878 0.667655C46.8657 0.631188 47.055 0.544923 47.3307 0.446502C47.677 0.322977 48.032 0.224294 48.393 0.151238C48.8647 0.0544414 49.3454 0.00555838 49.8274 0.00537117C50.3893 0.00528416 50.9485 0.0823723 51.4885 0.234367C51.6195 0.273578 51.8027 0.323769 52.0153 0.399448C52.2575 0.484627 52.4929 0.586846 52.7199 0.705298C52.9876 0.844705 53.2388 1.01236 53.469 1.20525C53.976 1.62871 54.3417 2.19033 54.5192 2.81802C54.5982 3.09572 54.6469 3.38081 54.6643 3.66852C54.6798 3.92064 54.6773 4.1735 54.6571 4.4253C54.6394 4.65312 54.6121 4.85232 54.5904 5.00955C54.5771 5.10562 54.5622 5.19738 54.5457 5.28403C54.5293 5.37069 54.512 5.45343 54.4943 5.53068C54.4766 5.60792 54.4581 5.67968 54.44 5.74555C54.422 5.81143 54.4043 5.87182 54.3878 5.92593C53.6615 6.05376 53.0591 6.13963 52.5623 6.191C52.1663 6.23669 51.7675 6.25621 51.3687 6.24942C51.1396 6.25028 50.9118 6.2156 50.6939 6.14669C50.6357 6.13111 50.5816 6.10356 50.5352 6.06589C50.4888 6.02822 50.4513 5.9813 50.425 5.92828C50.3988 5.85417 50.4014 5.77324 50.4322 5.70085C50.4679 5.61314 50.5095 5.52786 50.5568 5.44559C50.6112 5.34823 50.6554 5.24576 50.6887 5.13974C50.7254 5.01685 50.7353 4.8878 50.7176 4.76095C50.6945 4.61025 50.6397 4.46583 50.5568 4.33668C50.4695 4.19814 50.3592 4.07466 50.2305 3.97123C50.0959 3.86203 49.9445 3.77416 49.782 3.71087C49.6145 3.64519 49.4366 3.60844 49.2563 3.60225C48.9807 3.59404 48.708 3.65939 48.4677 3.79125C48.2354 3.9206 48.0307 4.09233 47.8649 4.29708C47.7019 4.49446 47.5681 4.71317 47.4674 4.94682C47.3791 5.14365 47.3225 5.35264 47.2998 5.56636C47.2924 5.64476 47.3155 5.723 47.3645 5.78555C47.4208 5.85378 47.4905 5.91032 47.5695 5.95181C47.6656 6.00418 47.7652 6.05016 47.8677 6.08944C47.9774 6.13336 48.0948 6.17688 48.2125 6.22354C48.8729 6.48705 49.4215 6.68467 49.8853 6.8427C50.3491 7.00072 50.7293 7.11718 51.0508 7.22383C51.3305 7.31022 51.6055 7.41047 51.8747 7.52419C52.106 7.62405 52.324 7.75112 52.5238 7.90258C52.6095 7.96886 52.6918 8.0394 52.7701 8.11394C52.9249 8.25919 53.0673 8.41656 53.1957 8.58447C53.3598 8.79642 53.4949 9.02828 53.5976 9.27421C53.7134 9.55069 53.7719 9.84682 53.7697 10.1455C53.7511 10.6296 53.5931 11.0988 53.3139 11.4995C53.0019 11.9545 52.6151 12.356 52.1689 12.688C51.6867 13.0526 51.1635 13.3625 50.6095 13.6118C50.0698 13.86 49.5037 14.0492 48.9215 14.176C48.4298 14.2796 47.9282 14.3321 47.4252 14.3329C46.9227 14.3346 46.4216 14.282 45.9309 14.176C45.4555 14.0749 44.9959 13.9125 44.5644 13.693C44.149 13.482 43.7735 13.2035 43.454 12.8695C43.3481 12.7346 43.2524 12.5922 43.1678 12.4437C43.011 12.1836 42.8697 11.915 42.7446 11.6391C42.6128 11.3625 42.5182 11.0704 42.4633 10.7701C42.434 10.6631 42.4317 10.5508 42.4566 10.4428C42.4815 10.3347 42.5329 10.2342 42.6064 10.1498Z" fill="white"/>
<path d="M1.55492 5.89879C1.55492 5.89879 1.56657 5.74194 1.58627 5.47217C1.60596 5.20239 1.63409 4.82675 1.66665 4.38836C1.6992 3.94997 1.73819 3.45277 1.77838 2.94224C1.81857 2.4317 1.86077 1.91136 1.90216 1.42592C1.90457 1.39769 1.90779 1.36083 1.91462 1.31966C1.92185 1.27346 1.9326 1.22785 1.94677 1.1832C1.96279 1.1316 1.98462 1.08189 2.01188 1.03499C2.0434 0.9827 2.08253 0.935152 2.12803 0.893823C2.17892 0.847239 2.23679 0.808497 2.29965 0.778933C2.35765 0.751658 2.41858 0.730747 2.48131 0.716587C2.5374 0.704003 2.59435 0.695354 2.65171 0.690707C2.70396 0.686002 2.75099 0.684826 2.78876 0.684041L3.42699 0.671102L3.89481 0.661299L4.1894 0.656593H4.30676C4.46993 0.656593 4.63029 0.649535 4.79668 0.640517C4.96307 0.631498 5.13468 0.620126 5.31916 0.607971C5.50363 0.595815 5.7094 0.582875 5.93206 0.573465C6.15472 0.564054 6.40269 0.556604 6.68161 0.553467C6.72663 0.553467 6.78611 0.553467 6.85162 0.556604C6.922 0.560173 6.992 0.568956 7.06101 0.582875C7.13236 0.596753 7.20127 0.62066 7.26558 0.653848C7.3283 0.68616 7.38155 0.733527 7.42031 0.791481C7.44021 0.822364 7.45537 0.855918 7.46533 0.891079C7.47414 0.92246 7.47953 0.954661 7.4814 0.987147C7.48338 1.01404 7.48338 1.04103 7.4814 1.06792C7.4814 1.09106 7.47658 1.10949 7.47497 1.12203C7.4593 1.22987 7.43478 1.44749 7.39821 1.76118C7.36163 2.07488 7.31783 2.48503 7.26719 2.97674C7.21655 3.46846 7.15506 4.04447 7.08874 4.68754C7.02243 5.33061 6.94848 6.04466 6.8693 6.81203L7.05096 6.80536L7.44804 6.79085L7.84472 6.77674L8.02598 6.77007L8.34751 6.75478L8.65657 6.74145C8.75584 6.73753 8.85109 6.73439 8.9379 6.73204C9.02472 6.72968 9.10751 6.72851 9.17905 6.72851L9.93905 1.07302C9.94397 1.03702 9.95525 1.00213 9.97241 0.969894C9.99006 0.936863 10.0127 0.906596 10.0395 0.880099C10.0672 0.852719 10.0986 0.82911 10.1328 0.809911C10.1682 0.790076 10.2062 0.774912 10.2457 0.764817H11.154C11.5029 0.764817 11.8372 0.760896 12.166 0.758151C12.4948 0.755406 12.8147 0.753446 13.1334 0.758151C13.4521 0.762857 13.7704 0.771483 14.0923 0.791873C14.4143 0.812263 14.7414 0.842848 15.079 0.889118C15.1413 0.892145 15.2012 0.913348 15.251 0.949981C15.3008 0.986614 15.3382 1.03699 15.3583 1.09459C15.4075 1.23504 15.4262 1.38391 15.4134 1.5318C15.4039 1.69678 15.3838 1.86101 15.3531 2.02351C15.3262 2.17683 15.2984 2.30975 15.288 2.3921L15.241 2.76422L14.7523 5.47334C14.588 6.38122 14.4234 7.29132 14.2583 8.20365C14.0933 9.11597 13.927 10.0329 13.7596 10.9543L13.2584 13.7254C13.2314 13.7794 13.2129 13.837 13.2033 13.8964C13.1903 13.9672 13.1708 14.0368 13.145 14.1042C13.1185 14.1741 13.0709 14.2346 13.0084 14.2775C12.9213 14.3294 12.8196 14.3532 12.7178 14.3454C12.5868 14.3422 12.3099 14.3269 11.9614 14.3061C11.613 14.2854 11.193 14.2563 10.7766 14.2277C10.3602 14.1991 9.94669 14.1697 9.6111 14.1462L8.91419 14.0968C8.89194 14.0953 8.8698 14.0925 8.84788 14.0885C8.83111 14.0855 8.81458 14.0813 8.79844 14.076C8.78612 14.0718 8.77415 14.0667 8.76267 14.0607C8.75404 14.056 8.74584 14.0506 8.73816 14.0446C8.75021 13.7184 8.76214 13.3925 8.77393 13.0671C8.78572 12.7416 8.79764 12.4167 8.8097 12.0923C8.82149 11.7678 8.83341 11.4437 8.84547 11.1198C8.85752 10.7959 8.86931 10.4727 8.88083 10.1501C8.7056 10.1681 8.49661 10.1862 8.27074 10.2042C8.04487 10.2223 7.80212 10.2403 7.55937 10.2583C7.31662 10.2764 7.07387 10.2944 6.848 10.3124C6.62213 10.3305 6.41274 10.3485 6.23791 10.3666L6.16436 11.2465L6.09081 12.1287C6.06616 12.4233 6.04165 12.7181 6.01726 13.0129C5.99288 13.3078 5.96823 13.6032 5.94331 13.8991C5.58062 14.0159 5.21082 14.1106 4.83607 14.1826C4.43135 14.2611 3.99448 14.3293 3.53751 14.3818C3.08055 14.4344 2.60349 14.4736 2.11758 14.4995C1.63168 14.5253 1.13774 14.5387 0.647014 14.5387H0.444455L0.368896 14.4304L1.55492 5.89879Z" fill="white"/>
<path d="M66.583 0.462218C66.626 0.492859 66.6599 0.534172 66.6811 0.581879C66.7023 0.629586 66.7101 0.681954 66.7035 0.733562C66.6978 0.88674 66.6731 1.03868 66.63 1.18606C66.5862 1.35507 66.5299 1.53583 66.4801 1.71032C66.4312 1.86952 66.3946 2.03205 66.3704 2.19655C66.3535 2.34006 66.3471 2.51024 66.343 2.68434C66.339 2.85844 66.337 3.04195 66.3286 3.21252C66.3241 3.36568 66.3066 3.51821 66.2763 3.66855C66.263 3.77221 66.213 3.86807 66.1349 3.9395C65.8862 4.00505 65.6284 4.03153 65.3712 4.01792C64.9669 4.02773 64.4497 4.02577 63.9296 4.02537C63.4095 4.02498 62.8875 4.02537 62.4735 4.04145C62.2002 4.03043 61.927 4.06585 61.6661 4.14615C61.5745 4.21267 61.5029 4.30189 61.4587 4.40455C61.4076 4.51657 61.3745 4.6356 61.3606 4.75745C61.3457 4.87202 61.349 4.98814 61.3703 5.10173C61.3819 5.18854 61.4226 5.26918 61.486 5.33112C61.6636 5.3889 61.8518 5.4083 62.0378 5.38798C62.324 5.38562 62.6865 5.36641 63.0498 5.34602C63.4132 5.32563 63.7765 5.30406 64.0642 5.29661C64.2512 5.27679 64.4403 5.28846 64.6233 5.33112C64.6828 5.3668 64.7069 5.55149 64.7037 5.81264C64.6966 6.12751 64.671 6.44172 64.6269 6.75372C64.5851 7.07826 64.5248 7.40029 64.4464 7.71832C64.4149 7.91561 64.3365 8.10295 64.2174 8.26532C64.0361 8.34519 63.8374 8.38008 63.639 8.36688C63.3545 8.37629 63.0004 8.36688 62.6451 8.35355C62.2898 8.34022 61.9333 8.32375 61.6432 8.31983C61.4413 8.30413 61.2382 8.31734 61.0403 8.35904C60.9364 8.41598 60.8571 8.5076 60.8168 8.61705C60.7555 8.75628 60.7148 8.90339 60.6963 9.05387C60.675 9.19936 60.6763 9.34716 60.7003 9.49225C60.7036 9.54336 60.7187 9.59308 60.7443 9.63779C60.7698 9.6825 60.8054 9.72107 60.8482 9.75066C61.0235 9.79772 61.2051 9.81848 61.3868 9.81222C61.6472 9.81889 61.9659 9.81457 62.2754 9.80555C62.5848 9.79654 62.8846 9.78281 63.1069 9.77144C63.3292 9.76007 63.4746 9.75105 63.4746 9.75105C63.4746 9.75105 63.5759 9.74517 63.7315 9.73811C63.887 9.73105 64.0972 9.72243 64.315 9.71654C64.5329 9.71066 64.7571 9.70792 64.9444 9.71223C65.077 9.70905 65.2095 9.72223 65.3387 9.75144C65.3998 9.77458 65.4191 9.873 65.4146 10.0189C65.4018 10.2042 65.3756 10.3884 65.3363 10.5702C65.2961 10.7823 65.243 11.0137 65.196 11.2368C65.149 11.4599 65.1072 11.6701 65.0859 11.8438C65.0646 12.0175 65.0557 12.2155 65.0509 12.4202C65.0461 12.6249 65.0445 12.8358 65.0368 13.0346C65.033 13.2164 65.0162 13.3978 64.9866 13.5773C64.9714 13.7073 64.9217 13.8311 64.8423 13.9365C64.3626 14.0767 63.8641 14.1467 63.3633 14.1443C62.5302 14.2035 61.4402 14.2502 60.3422 14.2765C59.2442 14.3027 58.1378 14.309 57.2725 14.2867C56.7265 14.3094 56.18 14.2566 55.6492 14.1298C55.5467 13.9177 55.5543 12.9688 55.6287 11.6614C55.703 10.3541 55.8437 8.70371 56.0085 7.06937C56.1724 5.44248 56.3597 3.83598 56.5309 2.61493C56.7022 1.39389 56.848 0.559071 56.9413 0.462218C57.0345 0.365366 57.6623 0.30498 58.5569 0.27165C59.4516 0.23832 60.6131 0.232438 61.7722 0.244594C62.9313 0.256749 64.0924 0.286942 64.9834 0.326546C65.5196 0.326945 66.0548 0.372337 66.583 0.462218Z" fill="white"/>
</g>
<defs>
<clipPath id="clip0_1566_6254">
<rect width="216" height="15" fill="white"/>
</clipPath>
</defs>
</svg>
