<svg width="300" height="21" viewBox="0 0 300 21" fill="none" xmlns="http://www.w3.org/2000/svg">
<path d="M33.8311 4.5545C32.9968 3.37029 31.8498 2.41109 30.5026 1.77134C29.8375 1.46783 29.1301 1.25456 28.4016 1.13789C27.705 0.996928 26.9913 0.945204 26.2801 0.984104C24.5516 1.17032 22.9381 1.89314 21.6938 3.03862C19.1408 5.38206 19.1926 8.88671 19.2177 10.5991C19.2418 12.2017 19.3152 17.1436 23.0983 19.5484C24.4581 20.3882 26.062 20.8075 27.6868 20.7479C30.6234 20.6937 33.7729 19.1219 35.1223 16.4184C35.7203 15.2209 35.7513 14.2294 35.8056 12.4605C35.8624 10.6672 35.963 7.4108 33.8311 4.5545ZM27.6587 15.3219C26.4002 15.3977 25.1284 12.9723 24.9231 10.9615C24.7433 9.21731 25.2657 6.79052 26.4293 6.54595C27.6594 6.28749 29.4983 8.49274 29.7546 10.7125C29.9945 12.788 28.8931 15.2473 27.6587 15.3219Z" fill="#A8E04E"/>
<path d="M37.2756 2.40889C37.2507 2.20422 37.295 1.99738 37.4022 1.81778C37.4896 1.68634 37.6068 1.57481 37.7456 1.49127C37.8843 1.40774 38.041 1.35427 38.2043 1.33472C39.072 1.32015 39.7746 1.28763 40.2539 1.26087C40.7213 1.23444 41.3855 1.24325 42.7109 1.26087C43.1574 1.26663 43.5019 1.27613 43.7496 1.50546C43.8667 1.64793 43.9504 1.81214 43.9952 1.98732C44.0399 2.16249 44.0447 2.34464 44.0093 2.52169C43.9262 3.33841 42.7975 14.4018 44.7902 15.206C44.911 15.2433 45.0384 15.2575 45.1651 15.2478C45.2917 15.2381 45.415 15.2047 45.5277 15.1494C47.793 14.1874 47.0301 5.19032 47.8291 2.2771C47.8851 2.07386 47.9031 1.54101 48.3065 1.4902C49.2493 1.41526 50.1961 1.39647 51.1414 1.43396C51.6506 1.43396 52.0374 1.39397 53.146 1.39397C53.858 1.39397 54.2966 1.40921 54.5436 1.68699C54.631 1.81465 54.6891 1.95809 54.7143 2.1081C54.7395 2.25812 54.7312 2.41142 54.69 2.55825C54.1035 5.79259 55.3301 18.2635 50.0558 20.1981C49.5237 20.3712 48.979 20.5078 48.4259 20.607C46.7389 20.9371 45.0136 21.0601 43.2931 20.9728C42.433 20.979 41.5769 20.8615 40.7544 20.6246C40.0212 20.3895 39.323 20.0668 38.6768 19.6646C37.0976 18.6538 36.153 11.7403 37.2756 2.40889Z" fill="#A8E04E"/>
<path d="M55.8417 14.2856C56.5207 13.6409 57.3707 13.1793 58.3032 12.9489C59.2357 12.7184 60.2168 12.7276 61.1443 12.9754C61.1116 13.1298 60.7847 14.7897 61.8563 15.7084C62.1755 16.0065 62.5973 16.1874 63.0457 16.2182C63.2867 16.2306 63.5278 16.1934 63.7521 16.1092C63.9764 16.025 64.1785 15.8959 64.3445 15.7307C64.8687 15.1596 64.7134 14.3378 64.4653 13.872C64.2978 13.5763 64.0538 13.3252 63.7559 13.142C62.5693 12.329 61.4499 12.2274 60.3446 11.9669C58.8617 11.6173 57.5266 11.303 56.7316 10.4039C55.6385 9.16819 56.006 7.32509 56.1879 6.41284C56.4127 5.26738 56.9021 4.18249 57.6214 3.23499C58.3407 2.2875 59.2724 1.50054 60.3504 0.929895C62.2818 -0.039981 64.5387 -0.261172 66.6407 0.313396C67.3631 0.526467 69.2296 1.07694 70.3713 2.76186C71.4582 4.36785 71.3449 6.20452 71.2899 7.09034C71.2633 7.5243 71.2025 7.95582 71.108 8.38131C67.271 9.09979 66.0276 8.87486 65.8058 8.38503C65.6184 7.9704 66.2401 7.53579 66.0761 6.74076C65.9559 6.29647 65.69 5.89918 65.3164 5.60535C64.9428 5.31151 64.4805 5.13606 63.995 5.10393C62.4273 5.0521 61.5858 6.85153 61.5858 7.87691C61.5858 8.35353 62.2305 8.5378 62.8803 8.80135C66.5267 10.2827 67.6536 10.2783 68.815 11.1553C68.9822 11.2813 70.5935 12.5323 70.6931 14.2792C70.8409 16.8835 67.5504 19.2113 64.6684 19.855C62.1449 20.4186 59.1012 19.8888 57.2853 18.0552C57.0444 17.814 55.1135 15.017 55.8417 14.2856Z" fill="#A8E04E"/>
<path d="M0.410004 8.34102C0.410004 8.34102 0.165857 4.77435 0.00908373 2.01154C-0.0267981 1.74414 0.0444127 1.47374 0.20871 1.25308C0.31971 1.14928 0.45287 1.06893 0.599358 1.0173C0.745847 0.965675 0.902327 0.943982 1.05839 0.953664C2.35285 0.921822 3.04856 0.913355 3.09855 0.913016C3.97806 0.907596 4.77888 0.781558 6.2801 0.769363C6.52353 0.767331 7.06893 0.769363 7.32027 1.10811C7.41526 1.24831 7.46179 1.41283 7.45336 1.57897C7.44761 2.19244 7.54752 5.31502 7.6874 9.62488L9.22567 9.56625C9.80099 9.53678 10.3763 9.50765 10.7643 9.50765V1.50785C10.7654 1.40787 10.8008 1.31094 10.8653 1.23154C10.9298 1.15215 11.0199 1.09456 11.122 1.06746H12.3446C14.2248 1.06746 15.8052 0.979741 17.6552 1.24328C18.4308 1.30189 18.192 2.91363 18.192 3.38211V3.90987C17.9283 9.01703 17.6646 14.1243 17.4009 19.2317C17.2909 19.4688 17.484 20.1009 16.7897 20.0846C16.0954 20.0684 12.273 19.7798 11.7139 19.7415C11.6272 19.7415 11.5427 19.7164 11.4716 19.6697C11.3052 17.8739 11.1386 16.0785 10.9717 14.2836C10.0523 14.3853 8.41413 14.4845 7.49471 14.5848C7.57861 16.2135 7.66249 17.842 7.74639 19.4705C6.08085 20.0694 3.45384 20.3495 0.857362 20.3495H0.588736L0.469347 20.2029L0.410004 8.34102Z" fill="#A8E04E"/>
<path d="M87.0123 0.637259C87.4848 0.911982 86.9044 2.29275 86.857 3.10743C86.8095 3.92211 87.0221 5.31232 86.674 5.57756C86.326 5.8428 81.1459 5.53926 80.6968 5.86954C80.2477 6.19982 80.2391 7.2862 80.5558 7.54296C80.8726 7.79973 84.4259 7.34277 84.7568 7.54296C85.0876 7.74316 84.8445 11.303 84.4468 11.6601C84.0491 12.0171 80.6814 11.5889 80.2175 11.7928C79.7537 11.9968 79.6601 13.5286 80.0765 13.7318C80.4929 13.9351 83.5727 13.7318 83.5727 13.7318C83.5727 13.7318 85.7215 13.6038 86.0537 13.7318C86.386 13.8599 85.9387 15.6728 85.8775 16.6335C85.8164 17.5942 86.0635 19.0992 85.7154 19.522C85.3673 19.9448 74.3054 20.2581 73.5639 19.7876C72.9422 18.621 73.5496 1.19043 74.0149 0.637259C74.4802 0.0840874 86.5399 0.362198 87.0123 0.637259Z" fill="#A8E04E"/>
<path d="M119.935 3.62115C119.101 2.43696 117.953 1.47776 116.606 0.837997C115.941 0.534479 115.234 0.321213 114.505 0.204544C113.808 0.063568 113.095 0.0118442 112.383 0.0507608C110.655 0.236974 109.041 0.959801 107.797 2.10527C105.244 4.44872 105.296 7.95337 105.321 9.66573C105.345 11.2683 105.419 16.2103 109.202 18.615C110.561 19.4549 112.165 19.8742 113.79 19.8145C116.727 19.7603 119.876 18.1886 121.226 15.485C121.824 14.2876 121.854 13.2961 121.909 11.5271C121.966 9.73382 122.067 6.47746 119.935 3.62115ZM113.762 14.3885C112.504 14.4644 111.232 12.039 111.027 10.0282C110.847 8.28397 111.369 5.85718 112.533 5.61261C113.763 5.35414 115.602 7.55939 115.858 9.7792C116.098 11.8547 114.995 14.314 113.762 14.3885Z" fill="#A8E04E"/>
<path d="M137.27 0.423653C137.573 0.836923 137.21 1.23905 137.114 2.89383C137.068 3.70682 137.279 5.09872 136.931 5.36396C136.584 5.62919 131.403 5.32565 130.954 5.65627C130.505 5.98688 130.497 7.41134 130.813 7.66811C131.13 7.92487 134.683 7.46791 135.014 7.66811C135.345 7.8683 135.102 11.4282 134.704 11.7852C134.307 12.1422 130.939 11.7144 130.475 11.918C130.21 12.0345 130.31 11.9518 130.334 13.5182C130.37 15.7644 130.302 15.4694 130.367 17.1672C130.387 17.677 130.419 18.3813 130.475 19.2247L123.823 19.574C123.826 18.9195 123.828 17.9257 123.817 16.7157C123.8 14.9139 123.755 12.833 123.657 10.3923C123.365 3.17227 122.94 1.27255 124.274 0.423653C124.537 0.256313 125.135 0.203504 126.32 0.104591C130.002 -0.20299 130.581 0.278011 133.885 0.154708C135.9 0.0791675 136.855 -0.143746 137.27 0.423653Z" fill="#A8E04E"/>
<path d="M216.863 14.4557C217.542 13.8108 218.392 13.3491 219.325 13.1186C220.257 12.8882 221.238 12.8974 222.166 13.1454C222.133 13.2995 221.806 14.9594 222.878 15.8781C223.197 16.1764 223.619 16.3574 224.068 16.3882C224.309 16.4005 224.549 16.3633 224.774 16.2792C224.998 16.195 225.2 16.0659 225.366 15.9008C225.89 15.3296 225.735 14.5078 225.487 14.042C225.32 13.7463 225.075 13.4951 224.778 13.3117C223.593 12.4987 222.472 12.3971 221.366 12.1366C219.883 11.7873 218.548 11.4727 217.753 10.574C216.66 9.3379 217.028 7.49475 217.21 6.58285C217.434 5.43729 217.924 4.35233 218.643 3.40475C219.362 2.45718 220.294 1.67022 221.372 1.09961C223.304 0.130114 225.56 -0.0909958 227.662 0.483402C228.385 0.696134 230.251 1.24661 231.393 2.93187C232.48 4.53786 232.366 6.37452 232.312 7.26034C232.285 7.69429 232.224 8.12579 232.13 8.55131C228.293 9.26945 227.049 9.04452 226.828 8.55504C226.64 8.14041 227.262 7.70581 227.098 6.91043C226.977 6.46626 226.711 6.06912 226.338 5.77535C225.964 5.48159 225.502 5.30616 225.017 5.27397C223.449 5.22181 222.608 7.02153 222.608 8.04692C222.608 8.52353 223.252 8.70781 223.902 8.97136C227.548 10.4524 228.675 10.4483 229.835 11.3253C230.002 11.4513 231.613 12.702 231.713 14.4492C231.861 17.0535 228.57 19.3813 225.688 20.025C223.165 20.5886 220.121 20.0588 218.305 18.2252C218.066 17.984 216.135 15.187 216.863 14.4557Z" fill="white"/>
<path d="M284.519 14.4557C285.198 13.8108 286.048 13.3491 286.98 13.1187C287.913 12.8882 288.894 12.8975 289.822 13.1454C289.789 13.2995 289.462 14.9594 290.533 15.8781C290.853 16.1764 291.275 16.3573 291.723 16.3882C291.964 16.4005 292.205 16.3633 292.429 16.2791C292.654 16.195 292.856 16.0659 293.022 15.9008C293.546 15.3297 293.391 14.5078 293.143 14.0421C292.975 13.7463 292.731 13.4951 292.433 13.3117C291.249 12.4987 290.127 12.3971 289.022 12.1366C287.539 11.7874 286.204 11.4727 285.409 10.574C284.316 9.33793 284.684 7.49478 284.866 6.58288C285.09 5.43732 285.579 4.35235 286.299 3.40478C287.018 2.4572 287.95 1.67024 289.028 1.09964C290.959 0.130104 293.216 -0.0910072 295.318 0.483427C296.041 0.696159 297.907 1.24663 299.048 2.93189C300.136 4.53788 300.022 6.37455 299.968 7.26037C299.941 7.69431 299.88 8.12581 299.786 8.55134C295.949 9.26948 294.705 9.04455 294.483 8.55506C294.296 8.14044 294.917 7.70583 294.753 6.91046C294.633 6.46626 294.367 6.06907 293.994 5.77529C293.62 5.48152 293.158 5.30613 292.673 5.274C291.105 5.22183 290.263 7.02156 290.263 8.04694C290.263 8.52356 290.908 8.70784 291.558 8.97138C295.204 10.4524 296.331 10.4483 297.491 11.3253C297.658 11.4513 299.269 12.702 299.369 14.4492C299.517 17.0535 296.226 19.3814 293.344 20.025C290.82 20.5887 287.777 20.0589 285.961 18.2252C285.722 17.984 283.791 15.187 284.519 14.4557Z" fill="white"/>
<path d="M155.917 7.97881C155.917 7.97881 155.673 4.4118 155.516 1.64933C155.48 1.38182 155.551 1.11129 155.716 0.890544C155.827 0.786783 155.96 0.706455 156.106 0.654886C156.253 0.603316 156.409 0.581706 156.565 0.591453C157.86 0.559611 158.556 0.551103 158.606 0.550764C159.485 0.545344 160.286 0.419348 161.787 0.407153C162.031 0.40512 162.576 0.407153 162.827 0.745899C162.922 0.886104 162.969 1.05062 162.96 1.21676C162.955 1.83023 163.055 4.95277 163.194 9.26263L164.733 9.20404C165.308 9.17457 165.883 9.14544 166.271 9.14544V1.14564C166.272 1.04565 166.308 0.948653 166.372 0.869248C166.437 0.789843 166.527 0.732297 166.629 0.705251H167.852C169.732 0.705251 171.312 0.617497 173.162 0.880702C173.938 0.939305 173.699 2.55142 173.699 3.0199V3.54766C173.435 8.65504 173.172 13.7622 172.908 18.8691C172.798 19.1062 172.991 19.7387 172.297 19.7224C171.602 19.7062 167.78 19.4175 167.221 19.3793C167.134 19.3793 167.05 19.3542 166.979 19.3071C166.812 17.5118 166.646 15.7164 166.479 13.9211C165.559 14.0227 163.921 14.1219 163.002 14.2222C163.086 15.8507 163.17 17.4793 163.253 19.108C161.588 19.7069 158.961 19.9867 156.364 19.9867H156.096L155.976 19.8403L155.917 7.97881Z" fill="white"/>
<path d="M237.716 5.59064C236.881 5.59064 235.685 6.21053 234.82 6.21053C234.132 6.21053 233.615 6.27832 233.333 6.03442C233.236 5.92789 233.165 5.80347 233.123 5.66925C233.081 5.53503 233.069 5.394 233.089 5.25529C233.155 2.45522 232.478 0.370906 233.869 0.377342C235.26 0.383778 238.717 -0.029157 242.033 0.102276C245.349 0.23371 247.754 0.792328 249.474 0.951539C249.446 2.3177 249.482 3.36205 249.524 4.09205C249.568 4.85592 249.649 5.83283 249.031 6.27219C248.974 6.31309 248.912 6.3483 248.847 6.37722C248.667 6.40533 247.743 6.43345 247.534 6.43345C247.534 6.43345 247.377 6.43345 247.206 6.43345C246.315 6.42634 244.473 6.34164 244.041 6.32131C245.317 12.8527 245.627 17.7127 244.929 18.608C244.661 18.9472 244.322 19.2306 243.933 19.4406C243.436 19.6621 242.889 19.7621 242.341 19.7312C241.321 19.7467 240.303 19.8313 239.297 19.9843C238.805 20.0362 238.311 19.9022 237.924 19.6117C237.253 19.0253 237.505 17.9606 237.631 16.1344C237.703 15.066 237.615 13.9922 237.671 12.9228C237.754 11.329 237.816 8.95303 237.716 5.59064Z" fill="white"/>
<path d="M264.146 0.776794C264.619 1.05152 264.038 2.43258 263.991 3.24693C263.943 4.06127 264.156 5.45216 263.808 5.71706C263.46 5.98196 258.28 5.67875 257.831 6.00937C257.382 6.33998 257.373 7.42568 257.69 7.68279C258.007 7.9399 261.56 7.48225 261.891 7.68279C262.221 7.88333 261.978 11.4429 261.581 11.7996C261.183 12.1562 257.815 11.7287 257.351 11.9323C256.888 12.1359 256.794 13.6681 257.21 13.8713C257.627 14.0746 260.707 13.8713 260.707 13.8713C260.707 13.8713 262.855 13.7436 263.188 13.8713C263.52 13.999 263.073 15.8127 263.011 16.7733C262.95 17.734 263.197 19.2387 262.849 19.6615C262.501 20.0842 251.439 20.3976 250.698 19.9274C250.076 18.7604 250.683 1.3303 251.149 0.776794C251.614 0.223284 263.674 0.502071 264.146 0.776794Z" fill="white"/>
<path d="M192.441 18.4038C192.238 18.7737 191.769 18.8943 191.304 19.001C188.911 19.5484 188.715 19.2313 186.904 19.5677C186.497 19.6432 185.963 19.7604 185.622 19.483C185.412 19.2553 185.301 18.9612 185.311 18.6595C185.211 17.9501 185.015 17.2557 184.728 16.5932H181.405C181.218 17.3557 181.079 17.9631 180.99 18.3618C180.842 19.0234 180.795 19.273 180.561 19.4597C180.228 19.7262 179.783 19.649 178.992 19.5399C176.475 19.1927 175.217 19.0189 174.754 19.0471C174.304 19.0748 173.922 19.1375 173.69 18.9075C173.302 18.5234 173.665 17.6541 173.779 17.3713C174.705 15.0678 178.247 3.77504 178.616 2.07657C178.682 1.64648 178.909 1.25287 179.257 0.966503C179.632 0.727148 180.083 0.616306 180.534 0.652485C182.499 0.646049 182.977 0.316443 185.755 0.433988C186.206 0.425094 186.647 0.559724 187.007 0.81611C187.255 1.02139 187.436 1.28804 187.531 1.58573C189.365 6.79733 190.336 12.2701 192.402 17.4031C192.48 17.5587 192.523 17.7276 192.53 17.8997C192.537 18.0717 192.507 18.2431 192.441 18.4038ZM184.084 12.3253C184.112 12.2844 184.13 12.2383 184.137 12.1902C184.143 12.1421 184.139 12.0932 184.124 12.0469C183.882 10.9192 183.279 8.78782 183.179 7.96839C183.17 7.89116 183.139 7.61302 183.096 7.61302C183.053 7.61302 183.013 7.94804 183 8.05068C182.886 9.01746 182.265 11.4456 182.108 11.9923C182.086 12.0658 182.024 12.2772 182.127 12.3629C182.199 12.4215 182.31 12.3927 182.407 12.3748C182.849 12.3352 183.294 12.3405 183.735 12.3904C183.864 12.3978 184.005 12.409 184.084 12.3253Z" fill="white"/>
<path d="M215.209 0.428562C215.688 0.842848 215.686 1.52034 215.687 1.78524C215.695 7.60658 214.467 13.3944 214.536 19.2151C214.554 19.3839 214.535 19.5544 214.479 19.7156C214.423 19.8769 214.331 20.0252 214.21 20.151C214.071 20.2366 213.914 20.2951 213.75 20.3231C213.586 20.3511 213.418 20.348 213.255 20.3139C211.787 20.2611 210.316 20.3218 208.859 20.4955C208.721 20.5231 208.579 20.5234 208.441 20.4965C208.303 20.4695 208.172 20.4159 208.058 20.339C207.954 20.2118 207.882 20.0647 207.846 19.9082C207.81 19.7517 207.811 19.5897 207.849 19.4335C208.088 17.5342 208.064 9.92022 207.894 9.89922C207.892 9.89922 207.887 9.89924 207.879 9.91245C207.412 10.5645 206.765 11.5134 206.06 12.6986C204.733 14.9303 204.542 15.7528 203.942 15.8601C203.336 15.9689 202.18 15.37 200.01 10.8186C199.881 13.0996 199.873 15.3853 199.988 17.667C200.016 18.022 200.094 18.8638 199.548 19.3607C199.46 19.4407 199.207 19.6469 197.873 19.7747C196.747 19.8827 196.597 19.7672 195.075 19.8103C194.09 19.838 193.91 19.8932 193.675 19.7371C192.983 19.2784 193.215 17.9295 193.286 17.4777C193.861 13.7894 193.765 4.81196 193.568 2.80048C193.541 2.52136 193.447 1.71646 193.954 1.25645C194.264 0.975965 194.676 0.936 195.395 0.866219C196.047 0.802873 196.624 0.746988 197.19 0.992918C197.671 1.22798 198.06 1.59904 198.305 2.05385C199.32 3.66222 200.63 5.08767 201.779 6.61406C203.128 8.40738 203.505 8.68888 203.896 8.64653C204.047 8.63027 204.487 8.53544 205.374 6.57647C206.537 4.00946 207.162 2.06233 207.162 2.06233C207.33 1.43187 207.732 0.878949 208.295 0.50411C208.666 0.295781 208.907 0.315769 210.291 0.242938C211.793 0.164011 212.148 0.107435 213.25 0.110823C214.623 0.115226 214.953 0.207022 215.209 0.428562Z" fill="white"/>
<path d="M282.939 6.89284C282.945 7.54499 282.88 8.196 282.742 8.83521C282.62 9.39401 282.411 9.93293 282.123 10.4348C281.832 10.9317 281.463 11.3851 281.03 11.7799C280.536 12.2259 279.994 12.6216 279.412 12.9608C280.289 14.414 281.107 15.792 281.911 17.1555C282.18 17.6111 282.594 18.3292 282.296 18.7327C282.116 18.9746 281.803 18.9427 281.113 19.0223C281.097 19.0243 281.428 18.9861 277.712 19.7337C277.029 19.8709 276.669 19.9369 276.381 19.7361C276.056 19.5074 276.053 19.0924 276.003 18.7347C275.747 16.876 274.098 15.5102 273.505 15.019C273.125 14.7047 272.711 14.429 272.27 14.1962C271.937 15.5004 271.875 16.8528 272.087 18.1792C272.153 18.5332 272.314 19.2391 271.907 19.6358C271.702 19.8363 271.442 19.8695 270.735 19.9068C268.721 20.0138 268.771 19.8526 267.169 19.8678C266.659 19.8726 266.356 19.8919 266.101 19.6852C265.652 19.3231 265.744 18.5853 265.774 18.3279C265.953 16.7852 265.717 15.2179 265.881 13.6739C265.949 13.0326 265.965 11.1671 266.034 7.44095C266.054 6.38858 266.074 5.34524 266.093 4.31094C266.112 3.27675 265.664 1.53323 266.209 1.18093C266.755 0.828635 267.56 0.746298 268.221 0.590814C268.876 0.435844 269.54 0.3143 270.21 0.226679C270.874 0.13996 271.549 0.0804611 272.235 0.0481673C272.921 0.0158736 273.623 -0.000190831 274.341 3.49995e-05C275.429 -0.00259576 276.511 0.1431 277.554 0.432606C278.547 0.701271 279.478 1.14121 280.301 1.73003C281.099 2.30827 281.753 3.04395 282.217 3.88548C282.716 4.81698 282.964 5.84978 282.939 6.89284ZM276.242 6.27465C276.013 5.67159 275.543 5.17678 274.931 4.8956C274.568 4.75124 274.176 4.68394 273.782 4.69852C273.388 4.7131 273.002 4.8092 272.652 4.97995C272.519 5.69859 272.431 6.42395 272.388 7.15232C272.338 8.00584 272.35 8.86162 272.424 9.71358C272.897 9.82568 273.389 9.84885 273.872 9.78177C274.354 9.7147 274.818 9.55868 275.236 9.32265C275.581 9.11818 275.87 8.84087 276.081 8.51272C276.277 8.17237 276.392 7.79638 276.42 7.41022C276.448 7.02407 276.387 6.6368 276.242 6.27465Z" fill="white"/>
</svg>
