<svg width="36" height="36" viewBox="0 0 36 36" fill="none" xmlns="http://www.w3.org/2000/svg">
<path d="M9.41999 32.9999C10.6612 32.9999 11.8516 32.5068 12.7293 31.6292C13.6069 30.7515 14.1 29.5611 14.1 28.3199C14.1 27.0787 13.6069 25.8883 12.7293 25.0106C11.8516 24.133 10.6612 23.6399 9.41999 23.6399C8.17878 23.6399 6.9884 24.133 6.11073 25.0106C5.23306 25.8883 4.73999 27.0787 4.73999 28.3199C4.73999 29.5611 5.23306 30.7515 6.11073 31.6292C6.9884 32.5068 8.17878 32.9999 9.41999 32.9999Z" stroke="white" stroke-width="3" stroke-linecap="round" stroke-linejoin="round"/>
<path d="M31.26 25.2V6.90002C31.26 3.00002 28.815 2.46002 26.34 3.13502L16.98 5.68502C15.27 6.15002 14.1 7.50002 14.1 9.45002V28.305" stroke="white" stroke-width="3" stroke-linecap="round" stroke-linejoin="round"/>
<path d="M14.1 14.2801L31.26 9.6001M26.58 29.8801C27.8212 29.8801 29.0116 29.387 29.8892 28.5094C30.7669 27.6317 31.26 26.4413 31.26 25.2001C31.26 23.9589 30.7669 22.7685 29.8892 21.8908C29.0116 21.0132 27.8212 20.5201 26.58 20.5201C25.3388 20.5201 24.1484 21.0132 23.2707 21.8908C22.393 22.7685 21.9 23.9589 21.9 25.2001C21.9 26.4413 22.393 27.6317 23.2707 28.5094C24.1484 29.387 25.3388 29.8801 26.58 29.8801Z" stroke="white" stroke-width="3" stroke-linecap="round" stroke-linejoin="round"/>
</svg>
