<svg width="302" height="84" viewBox="0 0 302 84" fill="none" xmlns="http://www.w3.org/2000/svg">
<path d="M211.412 14.8418C247.592 20.9289 268.496 26.3403 301.647 42.889L271.324 53.3644L281.357 83.1382C252.262 68.6124 235.651 64.5898 203.914 59.2386L211.412 14.8418Z" fill="#E6E5E5"/>
<path d="M90.2396 14.8418C54.0692 20.9289 33.1513 26.3356 -0.000244141 42.889L30.3371 53.3644L20.2944 83.1382C49.4038 68.6124 66.0005 64.5898 97.7472 59.2386L90.2396 14.8418Z" fill="#E6E5E5"/>
<path d="M205.537 49.6428L203.914 59.2388L246.68 59.373C247.252 54.707 234.061 55.4985 225.283 53.6191C220.12 52.5221 205.537 49.6428 205.537 49.6428Z" fill="#AAAAAA"/>
<path d="M96.124 49.6428L97.7474 59.2388C97.7474 59.2388 54.8369 60.3219 54.8928 59.373C55.1439 54.2117 67.5961 55.4985 76.3782 53.6191C81.5321 52.5221 96.124 49.6428 96.124 49.6428Z" fill="#AAAAAA"/>
<path d="M41.5847 16.3416C112.735 -5.44713 188.829 -5.44713 259.988 16.3416C255.551 30.6869 251.109 45.0415 246.68 59.3775C184.192 40.2551 117.372 40.2551 54.8974 59.3775C50.4552 45.0415 46.0269 30.6869 41.5894 16.3416H41.5847Z" fill="white"/>
</svg>
