<svg width="36" height="36" viewBox="0 0 36 36" fill="none" xmlns="http://www.w3.org/2000/svg">
<path d="M22.5 12.555V11.115C22.5 6.645 19.395 4.935 15.615 7.305L11.235 10.05C10.755 10.335 10.2 10.5 9.645 10.5H7.5C4.5 10.5 3 12 3 15V21C3 24 4.5 25.5 7.5 25.5H10.5M15.615 28.695C19.395 31.065 22.5 29.34 22.5 24.885V19.425M28.215 14.13C29.565 17.355 29.16 21.12 27 24M31.725 11.7C32.8268 14.3149 33.2238 17.173 32.8764 19.9892C32.529 22.8054 31.4493 25.4813 29.745 27.75M33 3L3 33" stroke="white" stroke-width="3"/>
</svg>
