<svg width="23" height="23" viewBox="0 0 23 23" fill="none" xmlns="http://www.w3.org/2000/svg">
<g filter="url(#filter0_d_1238_3694)">
<circle cx="11.5" cy="9.5" r="7.5" fill="#D9D9D9"/>
</g>
<path d="M8.99994 13.6667H11.327C12.3308 13.6667 13.1661 13.3491 13.833 12.7138C14.4998 12.0751 14.8333 11.2183 14.8333 10.1434V9.6901C14.8333 8.61524 14.4998 7.76015 13.833 7.12485C13.1661 6.48612 12.3308 6.16675 11.327 6.16675H8.99994V13.6667ZM10.0318 12.8323V7.00123H11.327C12.0781 7.00123 12.6765 7.23989 13.1222 7.71723C13.568 8.19113 13.7909 8.84875 13.7909 9.6901V10.1434C13.7909 10.9847 13.568 11.6441 13.1222 12.1214C12.6765 12.5953 12.0781 12.8323 11.327 12.8323H10.0318Z" fill="#121619"/>
<defs>
<filter id="filter0_d_1238_3694" x="0" y="0" width="23" height="23" filterUnits="userSpaceOnUse" color-interpolation-filters="sRGB">
<feFlood flood-opacity="0" result="BackgroundImageFix"/>
<feColorMatrix in="SourceAlpha" type="matrix" values="0 0 0 0 0 0 0 0 0 0 0 0 0 0 0 0 0 0 127 0" result="hardAlpha"/>
<feOffset dy="2"/>
<feGaussianBlur stdDeviation="2"/>
<feComposite in2="hardAlpha" operator="out"/>
<feColorMatrix type="matrix" values="0 0 0 0 0 0 0 0 0 0 0 0 0 0 0 0 0 0 0.75 0"/>
<feBlend mode="normal" in2="BackgroundImageFix" result="effect1_dropShadow_1238_3694"/>
<feBlend mode="normal" in="SourceGraphic" in2="effect1_dropShadow_1238_3694" result="shape"/>
</filter>
</defs>
</svg>
