<svg width="37" height="37" viewBox="0 0 37 37" fill="none" xmlns="http://www.w3.org/2000/svg">
<path fill-rule="evenodd" clip-rule="evenodd" d="M0.43934 34.318C-0.146447 34.9038 -0.146447 35.8536 0.43934 36.4393C1.02513 37.0251 1.97487 37.0251 2.56066 36.4393L36.4393 2.56066C37.0251 1.97487 37.0251 1.02513 36.4393 0.43934C35.8536 -0.146447 34.9038 -0.146446 34.318 0.43934L0.43934 34.318ZM7.79696 34.8788C7.29007 34.8788 6.78961 34.8165 6.30579 34.6962L13.9802 27.0218V28.6835C13.9802 28.7207 13.9789 28.7576 13.9762 28.7941C13.9515 30.3987 13.3034 31.9322 12.1669 33.0687C11.0079 34.2277 9.436 34.8788 7.79696 34.8788ZM13.9802 15.8045L17.8294 14.7547L22.1051 10.479L13.9802 12.6949V9.82853C13.9802 8.59786 14.6557 7.80958 15.7545 7.51078L25.1149 4.96067C26.2041 4.66363 26.9469 4.73896 27.3514 4.9754C27.3971 5.00213 27.4481 5.03672 27.5016 5.08253L29.6268 2.95727C29.3997 2.74076 29.1461 2.54951 28.8653 2.38541C27.4287 1.54567 25.7113 1.6885 24.3256 2.06638L14.966 4.61628C12.6451 5.24767 10.9802 7.15946 10.9802 9.82853V14.6567V14.6589V21.6038L13.9802 18.6038V15.8045ZM28.1402 20.2794V12.8618L31.1402 9.86178V9.93224C31.1412 9.9639 31.1412 9.99545 31.1402 10.0269V25.5105C31.1405 25.5332 31.1406 25.5559 31.1406 25.5787C31.1406 27.2177 30.4895 28.7896 29.3305 29.9486C28.1716 31.1076 26.5997 31.7587 24.9606 31.7587C23.3216 31.7587 21.7497 31.1076 20.5907 29.9486C19.4317 28.7896 18.7806 27.2177 18.7806 25.5787C18.7806 23.9396 19.4317 22.3677 20.5907 21.2087C21.7497 20.0498 23.3216 19.3987 24.9606 19.3987C26.0901 19.3987 27.1877 19.7079 28.1402 20.2794ZM7.79696 22.5188C8.46669 22.5188 9.1252 22.6275 9.74892 22.8352L6.95058 25.6335C6.42499 25.7787 5.94069 26.0579 5.54836 26.4502C5.15603 26.8425 4.8768 27.3268 4.73166 27.8524L1.93332 30.6508C1.72567 30.0271 1.61696 29.3685 1.61696 28.6988C1.61696 27.0598 2.26807 25.4879 3.42704 24.3289C4.58602 23.1699 6.15792 22.5188 7.79696 22.5188ZM28.1402 25.5297C28.1276 24.7041 27.794 23.9149 27.2092 23.3301C26.6128 22.7337 25.804 22.3987 24.9606 22.3987C24.1172 22.3987 23.3084 22.7337 22.712 23.3301C22.1157 23.9264 21.7806 24.7353 21.7806 25.5787C21.7806 26.4221 22.1157 27.2309 22.712 27.8273C23.3084 28.4236 24.1172 28.7587 24.9606 28.7587C25.804 28.7587 26.6129 28.4236 27.2092 27.8273C27.799 27.2374 28.1332 26.4398 28.1405 25.6064L28.1402 25.5785V25.5297Z" fill="white"/>
</svg>
