<svg width="15" height="10" viewBox="0 0 15 10" fill="none" xmlns="http://www.w3.org/2000/svg">
<path fill-rule="evenodd" clip-rule="evenodd" d="M0.358703 6.7847L4.4707 2.88065L7.50134 3.11649e-07L10.5317 2.88065L14.6437 6.78471C14.8724 7.00301 15.0006 7.29873 15 7.60649C15.0006 7.91425 14.8724 8.20997 14.6437 8.42827L13.3452 9.65933C13.1155 9.87717 12.8041 10 12.4795 10C12.1548 10 11.8434 9.87717 11.6138 9.65933L7.5018 5.75666L3.38861 9.65933C3.159 9.87717 2.84759 10 2.52292 10C2.19824 10 1.88684 9.87717 1.65723 9.65933L0.358703 8.42827C0.129181 8.21043 -3.63998e-07 7.91472 -3.49822e-07 7.60649C-3.35647e-07 7.29826 0.129181 7.00255 0.358703 6.7847Z" fill="white"/>
</svg>
