<svg width="28" height="30" viewBox="0 0 28 30" fill="none" xmlns="http://www.w3.org/2000/svg">
<g filter="url(#filter0_d_1645_7618)">
<ellipse cx="14" cy="13.5" rx="10" ry="10.5" fill="#D9D9D9"/>
</g>
<g filter="url(#filter1_d_1645_7618)">
<circle cx="14" cy="12" r="10" fill="#D9D9D9"/>
</g>
<path fill-rule="evenodd" clip-rule="evenodd" d="M13.9903 5C13.9953 5 14.0041 5.06058 14.0131 5.16291C14.0856 5.98774 14.476 6.84774 15.1738 7.72017C15.6352 8.29697 16.1144 8.79118 17.4168 10.0334C18.9699 11.5146 19.5183 12.1888 19.8316 13.0016C20.1008 13.6998 20.0459 14.4762 19.679 15.1594C18.8104 16.7771 16.6912 17.2613 15.1668 16.1904C14.8296 15.9535 14.5499 15.651 14.3168 15.271C14.221 15.1148 14.2307 15.1774 14.3536 15.5071C14.7714 16.6288 15.622 17.4391 16.7532 17.7931C16.9901 17.8672 17.3765 17.9476 17.5109 17.9508C17.5562 17.9518 17.6198 17.9633 17.6522 17.9763C17.6855 17.9896 16.0943 18 13.9971 18C11.9539 18 10.3095 17.9899 10.342 17.9774C10.3744 17.965 10.507 17.9399 10.6367 17.9217C10.7664 17.9035 10.9986 17.8513 11.1526 17.8058C12.3365 17.456 13.2432 16.6081 13.6577 15.4634C13.7694 15.1548 13.769 15.1195 13.6564 15.3101C13.5281 15.5271 13.2682 15.8346 13.0644 16.0106C12.2013 16.7556 10.977 16.9647 9.89319 16.5524C9.04676 16.2303 8.35676 15.4864 8.09934 14.6182C7.9952 14.2669 7.96857 13.6925 8.04102 13.3592C8.21081 12.5779 8.70042 11.8212 9.67683 10.8312C9.84811 10.6575 10.4193 10.107 10.9462 9.60784C12.4247 8.20713 13.0008 7.55377 13.4357 6.78437C13.6178 6.46236 13.7504 6.16124 13.836 5.87567C13.9004 5.66062 13.9799 5.212 13.9866 5.02548C13.9872 5.00818 13.9903 5 13.9903 5Z" fill="black"/>
<defs>
<filter id="filter0_d_1645_7618" x="0" y="1" width="28" height="29" filterUnits="userSpaceOnUse" color-interpolation-filters="sRGB">
<feFlood flood-opacity="0" result="BackgroundImageFix"/>
<feColorMatrix in="SourceAlpha" type="matrix" values="0 0 0 0 0 0 0 0 0 0 0 0 0 0 0 0 0 0 127 0" result="hardAlpha"/>
<feOffset dy="2"/>
<feGaussianBlur stdDeviation="2"/>
<feComposite in2="hardAlpha" operator="out"/>
<feColorMatrix type="matrix" values="0 0 0 0 0 0 0 0 0 0 0 0 0 0 0 0 0 0 0.75 0"/>
<feBlend mode="normal" in2="BackgroundImageFix" result="effect1_dropShadow_1645_7618"/>
<feBlend mode="normal" in="SourceGraphic" in2="effect1_dropShadow_1645_7618" result="shape"/>
</filter>
<filter id="filter1_d_1645_7618" x="0" y="0" width="28" height="28" filterUnits="userSpaceOnUse" color-interpolation-filters="sRGB">
<feFlood flood-opacity="0" result="BackgroundImageFix"/>
<feColorMatrix in="SourceAlpha" type="matrix" values="0 0 0 0 0 0 0 0 0 0 0 0 0 0 0 0 0 0 127 0" result="hardAlpha"/>
<feOffset dy="2"/>
<feGaussianBlur stdDeviation="2"/>
<feComposite in2="hardAlpha" operator="out"/>
<feColorMatrix type="matrix" values="0 0 0 0 0 0 0 0 0 0 0 0 0 0 0 0 0 0 0.75 0"/>
<feBlend mode="normal" in2="BackgroundImageFix" result="effect1_dropShadow_1645_7618"/>
<feBlend mode="normal" in="SourceGraphic" in2="effect1_dropShadow_1645_7618" result="shape"/>
</filter>
</defs>
</svg>
