<svg width="18" height="13" viewBox="0 0 18 13" fill="none" xmlns="http://www.w3.org/2000/svg">
<path fill-rule="evenodd" clip-rule="evenodd" d="M5.23425 0.246636C5.37139 0.0899025 5.56952 0 5.77778 0H15.1667C15.7413 0 16.2924 0.228274 16.6987 0.634602C17.1051 1.04093 17.3333 1.59203 17.3333 2.16667V10.8333C17.3333 11.408 17.1051 11.9591 16.6987 12.3654C16.2924 12.7717 15.7413 13 15.1667 13H5.77778C5.56952 13 5.37139 12.9101 5.23425 12.7534L0.178695 6.97559C-0.0595649 6.70329 -0.0595649 6.29671 0.178695 6.02441L5.23425 0.246636ZM6.1055 1.44444L1.68189 6.5L6.1055 11.5556H15.1667C15.3582 11.5556 15.5419 11.4795 15.6774 11.344C15.8128 11.2086 15.8889 11.0249 15.8889 10.8333V2.16667C15.8889 1.97512 15.8128 1.79142 15.6774 1.65598C15.5419 1.52054 15.3582 1.44444 15.1667 1.44444H6.1055ZM13.5107 3.82265C13.7927 4.10469 13.7927 4.56198 13.5107 4.84402L11.8547 6.5L13.5107 8.15598C13.7927 8.43802 13.7927 8.89531 13.5107 9.17736C13.2286 9.4594 12.7714 9.4594 12.4893 9.17736L10.8333 7.52138L9.17735 9.17736C8.89531 9.4594 8.43802 9.4594 8.15598 9.17736C7.87393 8.89531 7.87393 8.43802 8.15598 8.15598L9.81196 6.5L8.15598 4.84402C7.87393 4.56198 7.87393 4.10469 8.15598 3.82265C8.43802 3.5406 8.89531 3.5406 9.17735 3.82265L10.8333 5.47862L12.4893 3.82265C12.7714 3.5406 13.2286 3.5406 13.5107 3.82265Z" fill="white"/>
</svg>
