<svg width="35" height="28" viewBox="0 0 35 28" fill="none" xmlns="http://www.w3.org/2000/svg">
<g clip-path="url(#clip0_1566_6792)">
<path d="M34.125 24.4998H29.75V6.20411C29.7596 5.49767 29.4886 4.81627 28.9965 4.30932C28.5044 3.80237 27.8314 3.51124 27.125 3.49977H21V6.99977H26.25V27.9998H34.125C34.3571 27.9998 34.5796 27.9076 34.7437 27.7435C34.9078 27.5794 35 27.3568 35 27.1248V25.3748C35 25.1427 34.9078 24.9201 34.7437 24.7561C34.5796 24.592 34.3571 24.4998 34.125 24.4998ZM17.0753 0.054996L6.57533 2.77722C6.19136 2.88253 5.85308 3.11204 5.61331 3.42991C5.37354 3.74777 5.24579 4.13609 5.25 4.53422V24.4998H0.875C0.642936 24.4998 0.420376 24.592 0.256282 24.7561C0.0921872 24.9201 0 25.1427 0 25.3748L0 27.1248C0 27.3568 0.0921872 27.5794 0.256282 27.7435C0.420376 27.9076 0.642936 27.9998 0.875 27.9998H19.25V1.81433C19.2567 1.54379 19.2011 1.27534 19.0875 1.02973C18.9739 0.784111 18.8053 0.567916 18.5948 0.397854C18.3843 0.227793 18.1375 0.108423 17.8735 0.0489715C17.6095 -0.0104796 17.3353 -0.00841826 17.0722 0.054996H17.0753ZM14.4379 15.7498C13.713 15.7498 13.1258 14.9658 13.1258 13.9998C13.1258 13.0338 13.7138 12.2498 14.4387 12.2498C15.1636 12.2498 15.75 13.0338 15.75 13.9998C15.75 14.9658 15.162 15.7498 14.4379 15.7498Z" fill="white"/>
</g>
<defs>
<clipPath id="clip0_1566_6792">
<rect width="35" height="28" fill="white"/>
</clipPath>
</defs>
</svg>
