<svg width="319" height="105" viewBox="0 0 319 105" fill="none" xmlns="http://www.w3.org/2000/svg">
<path d="M271.68 10.6494C269.839 7.88049 267.306 5.6377 264.332 4.14179C262.863 3.4321 261.302 2.93344 259.693 2.66064C258.155 2.33101 256.58 2.21007 255.009 2.30106C251.193 2.73647 247.631 4.42659 244.884 7.10495C239.248 12.5844 239.363 20.779 239.418 24.7829C239.471 28.5301 239.633 40.0854 247.985 45.7082C250.987 47.6719 254.528 48.6524 258.115 48.5129C264.598 48.3862 271.551 44.711 274.53 38.3896C275.85 35.5897 275.918 33.2714 276.038 29.1352C276.164 24.9421 276.387 17.328 271.68 10.6494ZM258.054 35.8258C255.275 36.0032 252.468 30.332 252.014 25.6303C251.617 21.552 252.771 15.8777 255.339 15.3058C258.055 14.7015 262.115 19.8578 262.681 25.0482C263.21 29.9011 260.774 35.6515 258.054 35.8258Z" fill="#A8E04E"/>
<path d="M74.6981 10.6494C72.8564 7.88045 70.324 5.63764 67.35 4.14177C65.8817 3.4321 64.3201 2.93344 62.7117 2.66062C61.1739 2.33103 59.5984 2.21009 58.0281 2.30104C54.2123 2.73645 50.6502 4.42657 47.9032 7.10493C42.2672 12.5844 42.3815 20.779 42.4371 24.7829C42.4902 28.5301 42.6522 40.0854 51.0038 45.7082C54.0058 47.6718 57.5468 48.6522 61.1336 48.5129C67.6166 48.3862 74.5696 44.711 77.5487 38.3896C78.8688 35.5897 78.9372 33.2713 79.0571 29.1352C79.1825 24.9421 79.4046 17.328 74.6981 10.6494ZM61.0716 35.8258C58.2933 36.0032 55.4856 30.332 55.0324 25.6303C54.6355 21.552 55.7888 15.8777 58.3576 15.3058C61.0732 14.7015 65.1328 19.8578 65.6988 25.0482C66.2282 29.9011 63.7967 35.6515 61.0716 35.8258Z" fill="#A8E04E"/>
<path d="M82.3025 5.63249C82.2477 5.15392 82.3455 4.67029 82.582 4.25035C82.775 3.94302 83.0339 3.68223 83.3401 3.48691C83.6464 3.29159 83.9924 3.16658 84.353 3.12085C86.2684 3.0868 87.8195 3.01074 88.8776 2.94817C89.9096 2.88639 91.3757 2.90698 94.3017 2.94817C95.2876 2.96164 96.048 2.98385 96.595 3.52007C96.8534 3.85321 97.0382 4.23717 97.137 4.64677C97.2358 5.05636 97.2465 5.48226 97.1682 5.89625C96.9849 7.8059 94.493 33.6745 98.8923 35.5548C99.1588 35.6421 99.4402 35.6753 99.7198 35.6526C99.9994 35.6299 100.272 35.5517 100.52 35.4226C105.521 33.1731 103.837 12.1361 105.601 5.32435C105.725 4.84911 105.764 3.60321 106.655 3.4844C108.736 3.30918 110.827 3.26525 112.913 3.3529C114.037 3.3529 114.892 3.25941 117.339 3.25941C118.911 3.25941 119.879 3.29504 120.424 3.94453C120.617 4.24303 120.745 4.57842 120.801 4.92919C120.857 5.27995 120.838 5.6384 120.747 5.98172C119.453 13.5443 122.16 42.7039 110.517 47.2274C109.342 47.632 108.139 47.9516 106.919 48.1834C103.194 48.9552 99.3854 49.2428 95.587 49.0389C93.6883 49.0532 91.7984 48.7786 89.9827 48.2246C88.364 47.6749 86.8225 46.9205 85.396 45.9799C81.9096 43.6164 79.8243 27.4513 82.3025 5.63249Z" fill="#A8E04E"/>
<path d="M123.29 33.4028C124.789 31.8953 126.665 30.816 128.724 30.2772C130.783 29.7384 132.948 29.7598 134.996 30.3392C134.924 30.7003 134.202 34.5814 136.568 36.7295C137.272 37.4267 138.204 37.8495 139.194 37.9215C139.726 37.9505 140.258 37.8635 140.753 37.6667C141.248 37.4699 141.694 37.1679 142.061 36.7817C143.218 35.4463 142.875 33.5248 142.327 32.4357C141.958 31.7442 141.419 31.157 140.761 30.7288C138.142 28.8279 135.671 28.5903 133.23 27.9812C129.957 27.1638 127.009 26.4287 125.254 24.3266C122.841 21.4372 123.652 17.1276 124.054 14.9946C124.55 12.3162 125.631 9.77955 127.219 7.5641C128.807 5.34864 130.863 3.50858 133.243 2.17429C137.507 -0.0934841 142.49 -0.610675 147.13 0.732787C148.725 1.23099 152.845 2.51811 155.366 6.45781C157.765 10.213 157.515 14.5075 157.394 16.5787C157.335 17.5934 157.201 18.6024 156.992 19.5973C148.522 21.2772 145.777 20.7513 145.287 19.606C144.873 18.6365 146.246 17.6203 145.884 15.7613C145.618 14.7225 145.031 13.7935 144.207 13.1065C143.382 12.4194 142.361 12.0092 141.289 11.9341C137.828 11.8129 135.971 16.0203 135.971 18.4179C135.971 19.5323 137.394 19.9632 138.828 20.5794C146.878 24.0431 149.366 24.0328 151.93 26.0834C152.299 26.378 155.856 29.3032 156.076 33.3878C156.403 39.4771 149.138 44.9201 142.776 46.4251C137.205 47.743 130.485 46.5043 126.477 42.2169C125.945 41.6529 121.682 35.1128 123.29 33.4028Z" fill="#A8E04E"/>
<path d="M135.464 90.8287C136.963 89.3208 138.839 88.2413 140.898 87.7024C142.956 87.1636 145.122 87.1852 147.17 87.765C147.098 88.1254 146.376 92.0065 148.742 94.1546C149.447 94.8522 150.378 95.2753 151.368 95.3474C151.9 95.3762 152.432 95.2892 152.927 95.0924C153.422 94.8956 153.868 94.5937 154.235 94.2076C155.392 92.8722 155.05 90.9506 154.502 89.8616C154.132 89.17 153.594 88.5827 152.936 88.1539C150.32 86.2529 147.845 86.0153 145.405 85.4062C142.131 84.5896 139.184 83.8539 137.429 81.7525C135.016 78.8623 135.827 74.5526 136.229 72.4204C136.725 69.7419 137.805 67.205 139.393 64.9893C140.981 62.7737 143.038 60.9336 145.418 59.5994C149.682 57.3326 154.664 56.8156 159.304 58.1586C160.899 58.656 165.019 59.9431 167.54 63.8836C169.94 67.6388 169.689 71.9333 169.569 74.0045C169.509 75.0192 169.375 76.0281 169.167 77.0231C160.696 78.7023 157.95 78.1763 157.461 77.0318C157.048 76.0623 158.42 75.0461 158.058 73.1864C157.792 72.1478 157.205 71.2192 156.381 70.5323C155.556 69.8454 154.535 69.4352 153.464 69.36C150.003 69.238 148.145 73.4461 148.145 75.8437C148.145 76.9581 149.569 77.389 151.003 78.0052C159.052 81.4681 161.541 81.4586 164.101 83.5092C164.47 83.8039 168.027 86.7282 168.246 90.8136C168.573 96.903 161.309 102.346 154.947 103.851C149.375 105.169 142.656 103.93 138.647 99.6427C138.119 99.0787 133.857 92.5388 135.464 90.8287Z" fill="white"/>
<path d="M284.824 90.8288C286.323 89.3209 288.199 88.2413 290.258 87.7025C292.316 87.1637 294.482 87.1853 296.53 87.7651C296.458 88.1254 295.736 92.0065 298.101 94.1546C298.806 94.8521 299.738 95.2751 300.728 95.3474C301.26 95.3762 301.792 95.2892 302.287 95.0924C302.782 94.8956 303.228 94.5937 303.594 94.2077C304.752 92.8723 304.41 90.9507 303.862 89.8616C303.492 89.1701 302.953 88.5828 302.296 88.1539C299.68 86.253 297.205 86.0154 294.765 85.4063C291.491 84.5897 288.544 83.8539 286.789 81.7526C284.376 78.8624 285.187 74.5527 285.589 72.4205C286.085 69.7419 287.165 67.205 288.753 64.9894C290.341 62.7738 292.398 60.9337 294.778 59.5995C299.041 57.3325 304.024 56.8155 308.664 58.1587C310.259 58.6561 314.379 59.9432 316.899 63.8837C319.3 67.6388 319.049 71.9334 318.929 74.0046C318.869 75.0192 318.735 76.0282 318.527 77.0231C310.056 78.7023 307.31 78.1764 306.821 77.0319C306.408 76.0624 307.779 75.0462 307.417 73.1864C307.152 72.1478 306.565 71.2191 305.741 70.5322C304.916 69.8453 303.895 69.4352 302.824 69.36C299.363 69.2381 297.505 73.4462 297.505 75.8438C297.505 76.9582 298.928 77.3891 300.363 78.0053C308.412 81.4682 310.9 81.4586 313.461 83.5093C313.829 83.8039 317.387 86.7283 317.606 90.8137C317.933 96.903 310.669 102.346 304.306 103.851C298.735 105.169 292.016 103.93 288.007 99.6427C287.479 99.0788 283.217 92.5388 284.824 90.8288Z" fill="white"/>
<path d="M0.916213 75.6845C0.916213 75.6845 0.377225 67.344 0.0311251 60.8848C-0.0482923 60.2593 0.108925 59.6267 0.471828 59.1106C0.716916 58.868 1.01084 58.6802 1.33424 58.5596C1.65764 58.439 2.00314 58.3885 2.34763 58.4113C5.20534 58.3368 6.74122 58.3169 6.85156 58.3161C8.79321 58.3035 10.5611 58.0088 13.8753 57.9803C14.4127 57.9756 15.6168 57.9803 16.1716 58.7724C16.3813 59.1002 16.484 59.4849 16.4654 59.8734C16.4527 61.3078 16.6733 68.6089 16.9821 78.6863L20.3781 78.5493C21.6482 78.4804 22.9183 78.4123 23.7748 78.4123V59.7071C23.7771 59.4733 23.8553 59.2465 23.9977 59.0608C24.1401 58.8751 24.339 58.7406 24.5646 58.6773H27.2636C31.4145 58.6773 34.9033 58.4722 38.9874 59.0876C40.6997 59.2246 40.1725 62.9941 40.1725 64.0895V65.3235C39.5904 77.2656 39.0083 89.2072 38.4262 101.148C38.1833 101.703 38.6096 103.182 37.0767 103.144C35.5439 103.106 27.1055 102.431 25.8712 102.341C25.6797 102.341 25.4929 102.282 25.3363 102.173C24.969 97.9746 24.6011 93.7767 24.2328 89.5788C22.203 89.8164 18.5865 90.0484 16.5567 90.2828C16.7419 94.0905 16.9271 97.8985 17.1123 101.707C13.4354 103.107 7.63591 103.761 1.90382 103.761H1.31079L1.04722 103.419L0.916213 75.6845Z" fill="white"/>
<path d="M0.916372 19.5031C0.916372 19.5031 0.377384 11.1634 0.0312841 4.70341C-0.0479302 4.07817 0.109278 3.44591 0.471987 2.92998C0.717036 2.68726 1.01101 2.49938 1.3344 2.37867C1.65779 2.25795 2.00325 2.20723 2.34779 2.22987C5.20549 2.15541 6.74138 2.13562 6.85172 2.13482C8.79337 2.12215 10.5613 1.82745 13.8754 1.79893C14.4129 1.79418 15.6169 1.79893 16.1718 2.59099C16.3815 2.91882 16.4842 3.3035 16.4656 3.69196C16.4529 5.12638 16.6735 12.4276 16.9823 22.505L20.3782 22.3679C21.6483 22.299 22.9185 22.2309 23.775 22.2309V3.52566C23.7774 3.2919 23.8556 3.06524 23.998 2.8796C24.1404 2.69396 24.3392 2.5593 24.5647 2.49595H27.2638C31.4146 2.49595 34.9034 2.29084 38.9876 2.90706C40.6998 3.04409 40.1727 6.81267 40.1727 7.90809V9.14211C39.5905 21.0837 39.0084 33.0256 38.4263 44.9678C38.1834 45.5222 38.6097 47.0001 37.0769 46.9621C35.544 46.9241 27.1057 46.2493 25.8713 46.1598C25.68 46.1597 25.4934 46.1011 25.3364 45.9919C24.9692 41.7929 24.6013 37.595 24.2329 33.3981C22.2032 33.6357 18.5866 33.8678 16.5569 34.1023C16.7421 37.9105 16.9273 41.7184 17.1125 45.5261C13.4356 46.9265 7.63607 47.5815 1.90398 47.5815H1.31095L1.04738 47.2386L0.916372 19.5031Z" fill="#A8E04E"/>
<path d="M181.499 70.1004C179.655 70.1004 177.016 71.5499 175.106 71.5499C173.587 71.5499 172.446 71.7083 171.823 71.1381C171.61 70.889 171.452 70.5981 171.36 70.2842C171.267 69.9704 171.241 69.6406 171.284 69.3163C171.431 62.7691 169.935 57.8956 173.006 57.9106C176.077 57.9257 183.709 56.9601 191.03 57.2675C198.35 57.5748 203.661 58.881 207.457 59.2532C207.395 62.4476 207.476 64.8895 207.568 66.5964C207.664 68.3825 207.842 70.6667 206.479 71.694C206.352 71.7896 206.216 71.872 206.072 71.9396C205.675 72.0053 203.635 72.0711 203.174 72.0711C203.174 72.0711 202.827 72.0711 202.449 72.0711C200.483 72.0545 196.416 71.8564 195.464 71.8089C198.28 87.0806 198.964 98.4442 197.422 100.538C196.831 101.331 196.083 101.994 195.223 102.485C194.128 103.003 192.919 103.236 191.709 103.164C189.458 103.2 187.212 103.398 184.989 103.756C183.903 103.877 182.813 103.564 181.958 102.885C180.478 101.513 181.033 99.024 181.311 94.754C181.47 92.2559 181.277 89.7451 181.399 87.2445C181.583 83.5179 181.72 77.9624 181.499 70.1004Z" fill="white"/>
<path d="M192.103 1.49005C193.146 2.13241 191.865 5.36093 191.76 7.26583C191.656 9.17073 192.125 12.4213 191.356 13.0415C190.588 13.6617 179.152 12.952 178.161 13.7242C177.17 14.4965 177.15 17.0367 177.85 17.637C178.549 18.2374 186.394 17.1689 187.124 17.637C187.854 18.1051 187.318 26.4288 186.44 27.2637C185.562 28.0985 178.127 27.0973 177.103 27.5741C176.079 28.0509 175.872 31.6326 176.792 32.1079C177.711 32.5831 184.51 32.1079 184.51 32.1079C184.51 32.1079 189.254 31.8085 189.987 32.1079C190.721 32.4073 189.733 36.6464 189.598 38.8927C189.463 41.139 190.009 44.6581 189.24 45.6465C188.472 46.635 164.051 47.3677 162.414 46.2676C161.042 43.5397 162.382 2.78348 163.41 1.49005C164.437 0.196614 191.06 0.846894 192.103 1.49005Z" fill="#A8E04E"/>
<path d="M239.848 58.8446C240.891 59.487 239.61 62.7162 239.505 64.6203C239.4 66.5244 239.869 69.7766 239.101 70.396C238.333 71.0154 226.897 70.3064 225.905 71.0795C224.914 71.8525 224.895 74.3911 225.594 74.9923C226.294 75.5935 234.138 74.5234 234.868 74.9923C235.599 75.4612 235.062 83.7841 234.184 84.6182C233.306 85.4522 225.871 84.4526 224.847 84.9286C223.823 85.4046 223.617 88.9871 224.536 89.4624C225.455 89.9376 232.254 89.4624 232.254 89.4624C232.254 89.4624 236.998 89.1638 237.732 89.4624C238.465 89.761 237.478 94.0017 237.343 96.2479C237.208 98.4942 237.753 102.013 236.985 103.001C236.216 103.99 211.795 104.722 210.159 103.623C208.785 100.894 210.127 60.1389 211.154 58.8446C212.181 57.5504 238.805 58.2023 239.848 58.8446Z" fill="white"/>
<path d="M309.95 3.17296C310.618 4.13928 309.817 5.07954 309.607 8.94875C309.504 10.8497 309.97 14.1042 309.203 14.7244C308.435 15.3446 296.999 14.6349 296.007 15.4079C295.016 16.181 294.997 19.5116 295.696 20.112C296.396 20.7124 304.24 19.6439 304.97 20.112C305.701 20.5801 305.164 28.9038 304.286 29.7386C303.408 30.5735 295.973 29.5731 294.949 30.0491C294.363 30.3216 294.585 30.1283 294.638 33.7908C294.717 39.0429 294.567 38.3531 294.712 42.3229C294.756 43.515 294.826 45.1616 294.95 47.1339L290.951 47.3564L280.263 47.9505C280.271 46.4202 280.275 44.0963 280.25 41.2671C280.213 37.0541 280.114 32.1885 279.897 26.4817C279.253 9.59981 278.316 5.15786 281.259 3.17296C281.839 2.78169 283.159 2.65821 285.777 2.42693C293.905 1.70774 295.183 2.83242 302.477 2.54411C306.926 2.36748 309.033 1.84627 309.95 3.17296Z" fill="#A8E04E"/>
<path d="M81.5481 100.06C81.0996 100.925 80.0652 101.207 79.038 101.457C73.7552 102.737 73.3227 101.995 69.3251 102.782C68.4265 102.958 67.2475 103.232 66.495 102.584C66.0307 102.051 65.785 101.364 65.8068 100.658C65.5866 98.9994 65.1541 97.3757 64.52 95.8266H57.1852C56.7716 97.6096 56.4654 99.0298 56.2693 99.962C55.9422 101.509 55.8382 102.093 55.3222 102.529C54.5855 103.152 53.6028 102.972 51.858 102.717C46.3013 101.905 43.5231 101.499 42.5023 101.564C41.5076 101.629 40.6645 101.776 40.1517 101.238C39.2959 100.34 40.0985 98.3074 40.3501 97.646C42.3934 92.26 50.2125 65.8551 51.027 61.8838C51.1738 60.8781 51.6754 59.9578 52.4415 59.2882C53.27 58.7285 54.2658 58.4694 55.2627 58.554C59.6001 58.5389 60.6551 57.7682 66.7872 58.0431C67.7833 58.0223 68.7573 58.3371 69.552 58.9366C70.0988 59.4165 70.4995 60.04 70.7086 60.7361C74.757 72.9219 76.9002 85.7184 81.4615 97.7205C81.6338 98.0843 81.7303 98.4793 81.7452 98.8815C81.7601 99.2836 81.6931 99.6846 81.5481 100.06ZM63.0992 85.8475C63.1605 85.7519 63.2 85.6441 63.2151 85.5316C63.2302 85.4192 63.2204 85.3047 63.1864 85.1964C62.6538 82.5597 61.321 77.5761 61.1011 75.6601C61.0805 75.4795 61.0123 74.8292 60.917 74.8292C60.8218 74.8292 60.7335 75.6125 60.7066 75.8525C60.4541 78.113 59.0841 83.7905 58.7356 85.0689C58.6888 85.2408 58.5506 85.7351 58.7777 85.9355C58.9364 86.0725 59.1825 86.0051 59.3968 85.9631C60.3728 85.8707 61.3557 85.8829 62.3291 85.9996C62.6132 86.017 62.9238 86.0431 63.0992 85.8475Z" fill="white"/>
<path d="M131.812 58.0304C132.869 58.9991 132.866 60.5832 132.866 61.2026C132.884 74.8141 130.173 88.3472 130.326 101.957C130.367 102.352 130.323 102.751 130.199 103.128C130.076 103.505 129.874 103.851 129.607 104.146C129.299 104.346 128.953 104.483 128.591 104.548C128.229 104.613 127.858 104.606 127.499 104.527C124.257 104.403 121.011 104.545 117.793 104.951C117.489 105.016 117.174 105.016 116.87 104.953C116.566 104.89 116.277 104.765 116.024 104.585C115.796 104.288 115.637 103.944 115.557 103.578C115.477 103.212 115.479 102.833 115.563 102.468C116.091 98.027 116.039 80.2239 115.664 80.1748C115.658 80.1748 115.648 80.1748 115.63 80.2057C114.598 81.7304 113.17 83.949 111.614 86.7204C108.684 91.9385 108.264 93.8616 106.939 94.1127C105.6 94.3669 103.049 92.9665 98.2579 82.3244C97.972 87.6579 97.9556 93.0024 98.2087 98.3375C98.2714 99.1676 98.4428 101.136 97.237 102.298C97.0425 102.485 96.4845 102.967 93.541 103.266C91.054 103.518 90.7238 103.248 87.3628 103.349C85.1886 103.414 84.7917 103.543 84.2717 103.178C82.7444 102.105 83.258 98.9514 83.4136 97.8948C84.6837 89.2708 84.4703 68.2797 84.0361 63.5764C83.9757 62.9238 83.7685 61.0418 84.8886 59.9662C85.5736 59.3103 86.4824 59.2169 88.0692 59.0537C89.5092 58.9056 90.7826 58.7749 92.0329 59.35C93.0931 59.8996 93.9536 60.7672 94.4936 61.8307C96.7337 65.5914 99.6264 68.9244 102.163 72.4934C105.142 76.6865 105.973 77.3447 106.837 77.2457C107.171 77.2077 108.142 76.986 110.101 72.4055C112.667 66.4033 114.047 61.8505 114.047 61.8505C114.417 60.3763 115.305 59.0835 116.549 58.207C117.366 57.7199 117.898 57.7667 120.954 57.5964C124.27 57.4118 125.054 57.2795 127.487 57.2874C130.518 57.2977 131.247 57.5124 131.812 58.0304Z" fill="white"/>
<path d="M281.335 73.1452C281.35 74.6701 281.205 76.1923 280.901 77.6869C280.631 78.9935 280.17 80.2536 279.534 81.427C278.891 82.589 278.078 83.649 277.122 84.5723C276.031 85.6149 274.834 86.5404 273.55 87.3333C275.484 90.7313 277.292 93.9534 279.067 97.1415C279.66 98.2068 280.575 99.8859 279.916 100.829C279.519 101.395 278.828 101.32 277.305 101.506C277.269 101.511 277.999 101.422 269.796 103.17C268.288 103.491 267.494 103.645 266.859 103.175C266.14 102.641 266.133 101.67 266.024 100.834C265.458 96.488 261.817 93.2944 260.508 92.1459C259.669 91.4111 258.756 90.7663 257.782 90.2221C257.046 93.2714 256.909 96.4338 257.378 99.535C257.524 100.363 257.878 102.013 256.981 102.941C256.527 103.41 255.953 103.487 254.394 103.575C249.948 103.825 250.059 103.448 246.522 103.483C245.395 103.495 244.727 103.54 244.163 103.057C243.172 102.21 243.375 100.485 243.44 99.8827C243.837 96.2757 243.315 92.6109 243.679 89.0007C243.828 87.5013 243.863 83.1395 244.016 74.4268C244.059 71.9662 244.103 69.5266 244.146 67.1082C244.188 64.69 243.199 60.6133 244.403 59.7896C245.607 58.9658 247.384 58.7733 248.843 58.4098C250.29 58.0474 251.756 57.7632 253.234 57.5583C254.701 57.3556 256.192 57.2165 257.705 57.1409C259.219 57.0654 260.769 57.0279 262.355 57.0284C264.756 57.0223 267.145 57.3629 269.448 58.0398C271.64 58.668 273.696 59.6967 275.511 61.0735C277.273 62.4255 278.717 64.1457 279.742 66.1134C280.843 68.2914 281.39 70.7063 281.335 73.1452ZM266.552 71.6998C266.045 70.2897 265.007 69.1327 263.658 68.4753C262.856 68.1377 261.99 67.9804 261.12 68.0144C260.25 68.0485 259.399 68.2732 258.626 68.6725C258.333 70.3528 258.138 72.0489 258.043 73.7519C257.932 75.7476 257.959 77.7486 258.123 79.7407C259.167 80.0028 260.253 80.057 261.318 79.9002C262.383 79.7433 263.407 79.3785 264.33 78.8266C265.091 78.3486 265.73 77.7001 266.196 76.9328C266.628 76.137 266.883 75.2579 266.945 74.355C267.006 73.4521 266.872 72.5466 266.552 71.6998Z" fill="white"/>
</svg>
