<svg width="36" height="36" viewBox="0 0 36 36" fill="none" xmlns="http://www.w3.org/2000/svg">
<path d="M3 14.9999V20.9999C3 23.9999 4.5 25.4999 7.5 25.4999H9.645C10.2 25.4999 10.755 25.6649 11.235 25.9499L15.615 28.6949C19.395 31.0649 22.5 29.3399 22.5 24.8849V11.1149C22.5 6.64493 19.395 4.93493 15.615 7.30493L11.235 10.0499C10.755 10.3349 10.2 10.4999 9.645 10.4999H7.5C4.5 10.4999 3 11.9999 3 14.9999Z" stroke="white" stroke-width="3"/>
<path d="M27 12C28.2998 13.7303 29.0025 15.8359 29.0025 18C29.0025 20.1641 28.2998 22.2697 27 24M29.745 8.25C31.8554 11.0625 32.9962 14.4838 32.9962 18C32.9962 21.5162 31.8554 24.9375 29.745 27.75" stroke="white" stroke-width="3" stroke-linecap="round" stroke-linejoin="round"/>
</svg>
